<?xml version="1.0" encoding="UTF-8" standalone="no"?>
<svg xmlns="http://www.w3.org/2000/svg" xmlns:xlink="http://www.w3.org/1999/xlink" width="66.542mm" height="37.233mm" viewBox="-1253.271240 24.383472 66.542480 37.233044">
    <path transform="matrix(-1,0,0,1,0,0)" style="stroke:none;fill:#000000;fill-rule:evenodd" d="M1249.599854,24.397278C1249.71582,24.390381,1249.831421,24.411438,1249.939209,24.454651C1250.046875,24.497986,1250.143188,24.566467,1250.213135,24.658997C1250.260742,24.727692,1250.301514,24.800659,1250.342041,24.87384L1250.404541,24.942688C1250.429077,24.956299,1250.455811,24.96489,1250.481689,24.979797L1250.621582,25.309387C1250.772827,25.771591,1250.842896,26.256531,1250.831055,26.742737C1250.842041,27.125488,1250.82312,27.508484,1250.776123,27.888489L1250.77417,28.167786L1250.780029,28.929749C1250.757568,29.318726,1250.706787,29.705627,1250.628174,30.087219C1250.552734,30.669373,1250.44458,31.246735,1250.304199,31.816711C1250.25708,32.093185,1250.204346,32.368759,1250.14624,32.643127C1250.066772,33.247696,1249.944946,33.845978,1249.781494,34.433411L1249.735107,34.750305L1249.689697,35.085754C1249.657349,35.309586,1249.614258,35.531693,1249.562256,35.75177C1249.503052,36.1008,1249.43396,36.448044,1249.355713,36.793274L1249.323486,37.060852L1249.317627,37.156067C1249.294922,37.280228,1249.268799,37.403687,1249.240479,37.526672L1249.226807,37.618469C1248.96875,39.667694,1248.841064,41.731293,1248.844482,43.796692L1248.811279,44.580383L1248.858154,44.634583L1248.912842,44.657532L1248.99585,44.681946C1249.153442,44.720551,1249.311523,44.757416,1249.469971,44.792297L1249.864502,44.888489L1250.289795,44.998352C1250.760254,45.084106,1251.237305,45.12915,1251.715576,45.132629C1252.141235,45.187668,1252.571777,45.195435,1252.999268,45.156067L1253.059814,45.209778L1253.10498,45.264221L1253.1521,45.317688C1253.214722,45.395615,1253.254395,45.488342,1253.27124,45.586731C1253.243286,45.70697,1253.16333,45.807907,1253.052002,45.861145L1252.952393,45.915344L1252.89917,45.917786L1252.845947,45.916809C1251.763306,45.764755,1250.6875,45.568161,1249.621094,45.327454L1249.18335,45.215149C1249.111084,45.197662,1249.037842,45.18457,1248.964111,45.174622L1248.909424,45.171204C1248.884277,45.175598,1248.86084,45.185242,1248.8396,45.199036L1248.81958,45.245422C1248.707275,47.454407,1248.804688,49.669083,1249.110596,51.85968C1249.147949,52.258636,1249.192993,52.656769,1249.245361,53.054016L1249.271729,53.304016C1249.297974,53.575409,1249.322021,53.847198,1249.343994,54.118958L1249.370361,54.3797C1249.401855,54.648804,1249.438965,54.917297,1249.481689,55.184875C1249.658813,56.550385,1249.875,57.910339,1250.129883,59.263489C1250.219116,59.635834,1250.330322,60.002472,1250.46167,60.362122C1250.559448,60.743652,1250.722656,61.105743,1250.950439,61.427063L1250.951416,61.472961L1250.929443,61.522278L1250.899658,61.56427C1250.867554,61.576569,1250.838013,61.593506,1250.80542,61.605774C1250.746826,61.609924,1250.688232,61.612701,1250.629639,61.616516L1250.571533,61.60675L1250.497803,61.533508L1250.438721,61.448547L1250.385498,61.34845C1250.030273,60.474823,1249.766235,59.56665,1249.596436,58.638977C1249.250732,56.895081,1248.989746,55.135437,1248.814453,53.366272C1248.732788,52.696014,1248.651489,52.01532,1248.573242,51.344788C1248.485962,50.811874,1248.432007,50.274063,1248.411865,49.734436L1248.329834,48.660461L1248.324463,48.632629C1248.292725,47.440811,1248.268188,46.252548,1248.250732,45.060364L1248.245361,45.017395L1248.2229,44.957825L1247.527588,44.758362L1246.9104,44.552063L1246.75415,44.48175C1246.303345,44.288879,1245.850342,44.10173,1245.394775,43.920227L1244.705566,43.630432C1243.822632,43.234985,1242.964111,42.787079,1242.134521,42.289368C1241.368164,41.806015,1240.650146,41.250061,1239.990723,40.628723C1239.200928,39.817139,1238.60022,38.8414,1238.231201,37.770813C1237.861938,36.524963,1237.916748,35.192123,1238.386963,33.980774C1238.676758,32.915253,1239.192139,31.924423,1239.897705,31.075012C1240.425903,30.264954,1241.029785,29.506699,1241.701416,28.810852C1242.304077,28.142426,1242.960938,27.524796,1243.665527,26.964661L1243.749268,26.918762L1243.851074,26.811584C1244.008667,26.67926,1244.171509,26.553314,1244.338867,26.433411C1244.47998,26.329315,1244.631958,26.240707,1244.794678,26.17511L1244.972412,26.058899L1245.1604,25.929993C1245.506104,25.716934,1245.870972,25.536697,1246.250732,25.392883L1246.445557,25.257141L1246.492188,25.237366L1246.539795,25.22052C1246.668579,25.164047,1246.795532,25.103577,1246.920166,25.038391L1246.980225,25.014465L1247.052002,24.993469L1247.076904,24.963684C1247.159912,24.894577,1247.256958,24.84317,1247.363037,24.823059C1247.437134,24.779266,1247.512939,24.738129,1247.591553,24.702942L1247.64209,24.702698L1247.693115,24.7005L1247.926758,24.667786L1248.154053,24.605286L1248.379639,24.551331L1248.598389,24.47345L1248.833008,24.448547L1249.064697,24.404114C1249.242065,24.378769,1249.421875,24.376694,1249.599854,24.397278zM1249.039795,24.879211C1248.901611,24.856766,1248.759521,24.865768,1248.629395,24.917053L1248.485596,24.944153L1248.462158,24.963196L1248.368408,24.973938L1248.301514,25.009583C1248.215576,25.024612,1248.128906,25.034409,1248.041748,25.038391L1248.003174,25.056458L1247.867432,25.11261L1247.803711,25.121399L1247.623779,25.214172C1247.607178,25.212311,1247.590698,25.209412,1247.573486,25.209778L1247.487061,25.238098L1247.408447,25.221497L1247.391357,25.222961L1247.32251,25.302551L1247.231689,25.35675L1247.181885,25.377258L1247.096924,25.434387L1246.973389,25.476379L1246.929443,25.534485L1246.64624,25.631653L1246.602295,25.662415C1246.516602,25.734222,1246.411133,25.776108,1246.301514,25.799377L1246.281494,25.832825L1246.21875,25.873352L1246.145752,25.886047L1246.075928,25.933899L1245.966553,25.972473L1245.809814,26.069153L1245.699463,26.102844C1245.655029,26.132141,1245.613647,26.165192,1245.575439,26.202209L1245.520508,26.238586L1245.46167,26.269348C1245.422485,26.28595,1245.38147,26.296967,1245.340576,26.309875L1245.311768,26.332336L1245.271729,26.399231L1245.161865,26.463684L1245.109131,26.504211L1245.056885,26.522766C1244.99231,26.571579,1244.922485,26.613174,1244.845459,26.638977L1244.4021,26.948059L1244.368408,26.974915L1244.310547,27.035461L1244.262451,27.104309L1244.145996,27.170471C1243.995728,27.290146,1243.854736,27.420944,1243.723389,27.561096L1243.6604,27.608704C1243.614014,27.633911,1243.567627,27.65889,1243.517334,27.67511C1243.48645,27.703873,1243.455933,27.733063,1243.422607,27.759094L1243.380127,27.822571C1243.345215,27.851959,1243.30481,27.873001,1243.263916,27.892883L1243.144287,28.01886L1243.140381,28.039856L1243.052979,28.084778C1242.973755,28.142944,1242.895142,28.202133,1242.81958,28.264954L1242.736084,28.379211L1242.706299,28.378723L1242.679443,28.367981L1242.651611,28.398254L1242.619141,28.430237L1242.582275,28.457825L1242.572998,28.477356L1242.537354,28.574036L1242.425781,28.70343L1242.324463,28.841125L1242.256592,28.924133L1242.19751,29.013C1242.150757,29.065445,1242.103882,29.11763,1242.05835,29.171204L1242.008545,29.190247L1241.782959,29.489075C1241.765137,29.503036,1241.744873,29.511826,1241.725342,29.522766L1241.488037,29.834778L1241.465576,29.854309L1241.428223,29.897766L1241.386963,29.937805C1241.206787,30.142151,1241.029785,30.349472,1240.856201,30.559387C1240.730225,30.715576,1240.612549,30.87825,1240.502686,31.046204L1240.470459,31.087219L1240.443604,31.198059L1240.376709,31.274231C1240.348267,31.31456,1240.318848,31.354187,1240.291748,31.395325C1240.177124,31.50441,1240.09436,31.642136,1240.042725,31.791809C1239.703125,32.252396,1239.40918,32.745178,1239.164551,33.262512C1239.113647,33.39328,1239.068726,33.52623,1239.029541,33.66095L1239.00708,33.723938C1238.925293,33.885635,1238.865234,34.057388,1238.825439,34.234192C1238.723999,34.654968,1238.647461,35.081345,1238.595459,35.511047C1238.473999,36.451218,1238.598877,37.406647,1238.956787,38.284485L1238.987549,38.334778C1239.0354,38.424683,1239.080566,38.515991,1239.124268,38.607971L1239.222412,38.797668L1239.278076,38.895813L1239.331787,39.020813C1239.485962,39.281525,1239.654785,39.533203,1239.837646,39.774719L1240.04834,39.992249L1240.238525,40.228333L1240.421631,40.415833L1240.490479,40.504211L1240.743408,40.72345L1240.844971,40.822083C1240.878174,40.858215,1240.919434,40.885086,1240.961182,40.911438L1241.106201,41.03009L1241.216797,41.134827C1241.257813,41.174652,1241.304077,41.208115,1241.352295,41.238586L1241.408447,41.286926L1241.557861,41.376282L1241.616455,41.432434L1241.842041,41.61554L1241.921631,41.658508L1241.959717,41.688782L1242.044678,41.742493L1242.358154,41.989075C1242.456177,42.052551,1242.559692,42.107147,1242.666748,42.154114L1242.687256,42.177551C1242.850098,42.287262,1243.022339,42.382065,1243.201416,42.462708C1243.289673,42.540863,1243.391846,42.601089,1243.498779,42.651184L1243.951416,42.817688L1244.074951,42.895325L1244.207764,42.958313L1244.279541,42.982239L1244.381592,43.042297C1244.570923,43.127365,1244.761963,43.208725,1244.954346,43.286926C1245.012329,43.316147,1245.072754,43.340576,1245.135498,43.357727L1245.260986,43.414856L1245.35083,43.485168C1245.533081,43.56813,1245.717529,43.646301,1245.904053,43.719543L1246.03833,43.745911C1246.085205,43.765884,1246.131348,43.787796,1246.172119,43.818665L1246.511963,43.96759C1246.581421,44.002136,1246.655273,44.02742,1246.732666,44.032043L1246.811768,44.06134C1246.980591,44.09433,1247.141846,44.15773,1247.289307,44.246399L1247.4021,44.27301C1247.512085,44.314163,1247.624634,44.348129,1247.738525,44.37677C1247.870361,44.414627,1248.00293,44.449371,1248.136475,44.480774L1248.173584,44.493469L1248.227783,44.498596L1248.281982,44.493958L1248.298096,44.493958L1248.314453,44.476868L1248.338867,44.450745L1248.372314,44.387268C1248.413696,44.252808,1248.419067,44.110229,1248.385986,43.97345L1248.373779,43.723938L1248.368896,43.421204C1248.369629,43.319427,1248.36499,43.217697,1248.356689,43.116272L1248.354736,43.046204C1248.349854,42.551834,1248.373169,42.057556,1248.423584,41.565735L1248.433838,41.545715L1248.443115,41.514465L1248.431885,41.406067L1248.457764,40.87677L1248.456299,40.801086C1248.459351,40.542282,1248.468018,40.2836,1248.482666,40.025208L1248.480469,39.9422L1248.4729,39.85968C1248.484985,39.673645,1248.515625,39.489365,1248.560547,39.308411C1248.581299,39.014023,1248.611816,38.720398,1248.6521,38.42804L1248.660889,38.238586L1248.68335,38.140442L1248.684082,38.020081C1248.687378,37.923294,1248.698608,37.826813,1248.727295,37.734192C1248.732056,37.664352,1248.744385,37.595383,1248.76001,37.527161C1248.822388,37.034195,1248.911133,36.544861,1249.025635,36.06134L1249.034424,36.005432L1249.037354,35.949524L1249.043213,35.889954C1249.069214,35.800613,1249.087524,35.70929,1249.099365,35.617004C1249.126709,35.511658,1249.134155,35.40239,1249.127197,35.293762C1249.254395,34.700394,1249.367065,34.10405,1249.465088,33.505188L1249.520264,33.263L1249.56665,33.138489L1249.573975,33.103333L1249.622314,32.79425C1249.669434,32.515381,1249.722778,32.237701,1249.782471,31.961243C1249.804443,31.829117,1249.831543,31.697876,1249.86499,31.568176C1249.90918,31.201828,1249.976929,30.838806,1250.066162,30.480774C1250.068726,30.463211,1250.07666,30.448425,1250.080811,30.431458C1250.082153,30.196121,1250.11499,29.962418,1250.176025,29.735168C1250.177734,29.67128,1250.183472,29.607498,1250.20166,29.546204L1250.207275,29.478821C1250.2146,29.35466,1250.219604,29.230377,1250.221924,29.106018L1250.236084,28.902161L1250.26416,28.649475C1250.265991,28.57547,1250.262329,28.50145,1250.252686,28.42804L1250.255859,28.363831L1250.248779,28.30011L1250.264893,28.200989L1250.278076,28.100647C1250.282959,28.033997,1250.282959,27.967194,1250.280273,27.900452C1250.304443,27.71048,1250.313721,27.518799,1250.305908,27.327454C1250.350952,27.135742,1250.354614,26.935974,1250.311279,26.743958L1250.308838,26.579895L1250.308838,26.415833C1250.274292,26.140778,1250.221313,25.868439,1250.150635,25.600403L1249.977783,25.28009L1249.925049,25.262512C1249.901123,25.220032,1249.872681,25.180222,1249.839111,25.144836C1249.807739,25.08725,1249.768677,25.034714,1249.730469,24.981262C1249.712646,24.959488,1249.691406,24.94104,1249.666992,24.927063C1249.638794,24.907776,1249.607178,24.898621,1249.576904,24.883606C1249.399048,24.854294,1249.217773,24.850876,1249.039795,24.879211z"/>
    <path transform="matrix(-1,0,0,1,0,0)" style="stroke:none;fill:#000000;fill-rule:evenodd" d="M1235.226318,42.595749C1235.007324,42.551865,1234.889282,42.517601,1234.794556,42.470512C1234.756104,42.451408,1234.693237,42.425617,1234.654785,42.413204C1234.559082,42.38224,1234.473633,42.337997,1234.421753,42.292522C1234.397827,42.27153,1234.358643,42.246132,1234.334595,42.236084C1234.310547,42.226032,1234.283203,42.208527,1234.273682,42.197186C1234.264282,42.185844,1234.241455,42.168716,1234.2229,42.159126C1234.204346,42.149536,1234.164307,42.120888,1234.133789,42.095463C1234.103394,42.070034,1234.049561,42.034855,1234.014282,42.017281C1233.97644,41.998482,1233.89978,41.935719,1233.828003,41.864815C1233.760986,41.798531,1233.692749,41.737637,1233.676392,41.729496C1233.649536,41.716084,1233.524536,41.550648,1233.524536,41.528477C1233.524536,41.523396,1233.498291,41.466061,1233.466309,41.401062C1233.397705,41.261684,1233.315674,41.007713,1233.295166,40.87154C1233.287109,40.818382,1233.269775,40.724449,1233.25647,40.662804C1233.223999,40.511589,1233.231323,40.270458,1233.273438,40.108349C1233.281494,40.077034,1233.287354,40.039902,1233.286255,40.025826C1233.280273,39.946194,1233.54541,39.339462,1233.624878,39.251122C1233.637573,39.237022,1233.66333,39.196548,1233.682251,39.161179C1233.70105,39.125813,1233.753174,39.04866,1233.797974,38.989731C1233.842773,38.930801,1233.879639,38.874672,1233.879761,38.864998C1233.880005,38.855328,1233.930786,38.795319,1233.992798,38.731647C1234.054688,38.667976,1234.123657,38.590164,1234.146118,38.558735C1234.168457,38.527302,1234.210815,38.481579,1234.240112,38.457134C1234.269531,38.432686,1234.336548,38.364105,1234.38916,38.304733C1234.453125,38.232559,1234.508179,38.184155,1234.555298,38.158684C1234.649048,38.108109,1234.701782,38.075443,1234.742188,38.043018C1234.760498,38.028297,1234.80188,38.004658,1234.834106,37.990482C1234.866455,37.976307,1234.896973,37.958042,1234.901978,37.949894C1234.912842,37.932426,1235.029663,37.879082,1235.082764,37.867439C1235.103027,37.862968,1235.146484,37.845764,1235.179199,37.829201C1235.26001,37.7883,1235.401001,37.765938,1235.504883,37.777557C1235.602295,37.788452,1235.641357,37.789436,1235.778809,37.784447C1235.834717,37.782417,1235.974731,37.787785,1236.089966,37.796379C1236.2052,37.804974,1236.413818,37.813782,1236.553467,37.815956C1236.807495,37.819908,1236.807495,37.819908,1236.902344,37.865471C1236.95459,37.89053,1237.006104,37.911034,1237.016968,37.911034C1237.027832,37.911034,1237.048096,37.918869,1237.061768,37.928448C1237.075562,37.938023,1237.127197,37.960358,1237.176514,37.978077C1237.313843,38.027458,1237.561035,38.164124,1237.608276,38.216789C1237.621826,38.23196,1237.699341,38.295296,1237.780518,38.357533C1237.864746,38.422108,1237.952271,38.501858,1237.984375,38.543285C1238.045288,38.621651,1238.177246,38.742535,1238.248901,38.785606C1238.340088,38.840431,1238.655273,39.358185,1238.655273,39.45319C1238.655273,39.476505,1238.690308,39.568409,1238.737793,39.669987C1238.75415,39.70491,1238.77417,39.777851,1238.782227,39.832073C1238.790283,39.886299,1238.810669,39.980595,1238.827515,40.041626C1238.86145,40.164352,1238.87207,40.534756,1238.844971,40.654236C1238.82959,40.722084,1238.76001,40.907825,1238.741333,40.930557C1238.734131,40.939339,1238.716187,40.979343,1238.701294,41.019455C1238.660034,41.13089,1238.53125,41.349781,1238.488281,41.381569C1238.467163,41.397144,1238.420776,41.449894,1238.385132,41.498791C1238.294067,41.62384,1238.155396,41.763885,1238.058472,41.828781C1238.013062,41.859161,1237.928101,41.918785,1237.869629,41.961277C1237.811279,42.003773,1237.755371,42.03854,1237.745605,42.03854C1237.73584,42.03854,1237.688599,42.067116,1237.640503,42.102039C1237.592529,42.136967,1237.548218,42.165539,1237.542236,42.165539C1237.536133,42.165539,1237.524048,42.176971,1237.515259,42.190941C1237.506592,42.20491,1237.490723,42.216339,1237.480225,42.216339C1237.469604,42.216339,1237.437378,42.231247,1237.408569,42.249466C1237.356201,42.282516,1237.216919,42.339649,1237.156738,42.352741C1237.139282,42.356544,1237.110718,42.369518,1237.093262,42.38158C1237.075806,42.393642,1237.047241,42.407898,1237.029785,42.413261C1237.012207,42.418629,1236.981934,42.436382,1236.962402,42.452717C1236.902344,42.502979,1236.731079,42.544304,1236.445557,42.577484C1236.351196,42.588436,1236.249878,42.605892,1236.220337,42.616268C1236.112183,42.654263,1235.450073,42.640594,1235.226318,42.595749zM1235.706787,42.180344C1235.685791,42.174168,1235.639038,42.172531,1235.602783,42.176708C1235.552734,42.182465,1235.529053,42.17915,1235.504272,42.162975C1235.48645,42.151245,1235.471802,42.145863,1235.471802,42.151016C1235.471802,42.156166,1235.4646,42.154476,1235.455933,42.147259C1235.435913,42.130779,1235.259033,42.093769,1235.200195,42.093769C1235.174561,42.093769,1235.120483,42.075169,1235.070679,42.049217C1235.023682,42.024712,1234.958984,41.996731,1234.92688,41.98703C1234.843872,41.961952,1234.720947,41.901367,1234.663574,41.857288C1234.636597,41.836563,1234.598999,41.812904,1234.579956,41.804718C1234.560913,41.796532,1234.54187,41.775974,1234.537598,41.759033C1234.532593,41.738907,1234.518188,41.725792,1234.495972,41.721191C1234.477417,41.717323,1234.435181,41.688126,1234.402222,41.656311C1234.369385,41.624496,1234.333862,41.598469,1234.323364,41.598469C1234.312134,41.598469,1234.299072,41.578846,1234.291382,41.550297C1234.284302,41.523804,1234.267578,41.490501,1234.254395,41.476295C1234.241089,41.46209,1234.22644,41.438496,1234.221802,41.423866C1234.217163,41.409233,1234.182251,41.362309,1234.144043,41.319588C1234.105957,41.276863,1234.074829,41.233959,1234.074829,41.224243C1234.074829,41.214531,1234.06604,41.197807,1234.055298,41.18708C1234.044556,41.176353,1234.036865,41.165943,1234.038086,41.163948C1234.0448,41.153378,1234.020264,41.103168,1234.008301,41.103168C1234.00061,41.103168,1233.998047,41.099506,1234.002441,41.095036C1234.006958,41.090565,1234.002197,41.071991,1233.991943,41.053761C1233.9552,40.988384,1233.944458,40.954582,1233.922485,40.836468C1233.914063,40.791065,1233.901611,40.731056,1233.894897,40.703117C1233.877197,40.629635,1233.887329,40.266762,1233.909302,40.190174C1233.915527,40.168186,1233.921875,40.146015,1233.923218,40.140907C1233.924561,40.135796,1233.927734,40.1259,1233.930176,40.118916C1233.932739,40.111931,1233.946655,40.049065,1233.96106,39.979214C1233.990845,39.834904,1233.990112,39.837822,1234.007935,39.795067C1234.015259,39.777603,1234.037231,39.72364,1234.056641,39.675152C1234.136353,39.477146,1234.445679,39.046787,1234.656494,38.840816C1234.871338,38.630932,1235.197388,38.398064,1235.276489,38.398064C1235.288452,38.398064,1235.307373,38.390141,1235.318359,38.380459C1235.337524,38.363705,1235.467896,38.328064,1235.558472,38.314842C1235.581787,38.311451,1235.620972,38.300213,1235.645752,38.289867C1235.704468,38.265366,1235.793213,38.2659,1235.841919,38.29105C1235.863159,38.30204,1235.883789,38.307804,1235.887695,38.30386C1235.891724,38.299911,1235.90271,38.303162,1235.912231,38.311081C1235.921753,38.319,1235.933228,38.321796,1235.937744,38.317295C1235.967041,38.288055,1235.991577,38.353539,1235.984253,38.441029C1235.973145,38.573669,1235.992676,38.611828,1236.091187,38.650345C1236.185547,38.687218,1236.198364,38.680687,1236.194092,38.59832C1236.188599,38.495319,1236.215698,38.481056,1236.392578,38.493729C1236.46936,38.499237,1236.578003,38.505192,1236.633789,38.506966C1236.792969,38.512016,1236.849487,38.52293,1236.926636,38.563519C1236.966064,38.584278,1237.01709,38.601261,1237.039917,38.601261C1237.062744,38.601261,1237.105103,38.609608,1237.134033,38.619812C1237.162964,38.630013,1237.189453,38.63847,1237.192993,38.638603C1237.223267,38.639774,1237.299561,38.704201,1237.460693,38.864491C1237.564697,38.96806,1237.704102,39.104374,1237.770508,39.167412C1237.946899,39.334942,1238.104492,39.58857,1238.147705,39.774452C1238.187378,39.945435,1238.22937,40.087166,1238.240112,40.087166C1238.244873,40.087166,1238.249512,40.094311,1238.250244,40.103039C1238.251099,40.111771,1238.263428,40.158798,1238.277832,40.207542C1238.328247,40.378693,1238.30127,40.747566,1238.238403,40.747566C1238.225342,40.747566,1238.185913,40.823708,1238.19873,40.823963C1238.204224,40.82407,1238.202759,40.828354,1238.195679,40.833488C1238.180298,40.844559,1238.151489,40.907223,1238.151489,40.929596C1238.151489,40.938248,1238.108765,40.990845,1238.056519,41.046474C1238.004272,41.102104,1237.961426,41.152271,1237.961304,41.157963C1237.96106,41.163651,1237.943848,41.182735,1237.922852,41.200367C1237.901978,41.217999,1237.884766,41.236916,1237.884766,41.242401C1237.884766,41.247887,1237.864746,41.274212,1237.840332,41.300903C1237.815918,41.327595,1237.795898,41.35886,1237.795898,41.37038C1237.795898,41.381905,1237.784424,41.401707,1237.770386,41.414391C1237.756348,41.427071,1237.747314,41.439861,1237.750244,41.442814C1237.753296,41.44577,1237.746094,41.458096,1237.734497,41.470203C1237.7229,41.482315,1237.694946,41.518944,1237.672363,41.551598C1237.639526,41.599289,1237.613892,41.618824,1237.542236,41.650871C1237.493164,41.672813,1237.453003,41.695721,1237.453003,41.701771C1237.453003,41.707821,1237.44873,41.711403,1237.443481,41.709736C1237.430908,41.705727,1237.258789,41.801888,1237.246826,41.819626C1237.241699,41.827213,1237.237427,41.829082,1237.237305,41.823784C1237.237183,41.818489,1237.207031,41.830685,1237.17041,41.850895C1237.133789,41.871101,1237.061035,41.900291,1237.008667,41.91576C1236.956421,41.931229,1236.882202,41.960167,1236.843628,41.980064C1236.773193,42.016422,1236.646606,42.051804,1236.481445,42.081249C1236.432495,42.08997,1236.386841,42.100479,1236.379883,42.104607C1236.372803,42.10873,1236.359497,42.113255,1236.35022,42.114658C1236.340942,42.116066,1236.323853,42.121319,1236.312134,42.126339C1236.300537,42.131359,1236.265259,42.137642,1236.233765,42.140297C1236.202393,42.142956,1236.133789,42.154346,1236.081421,42.165607C1235.973145,42.188877,1235.763672,42.197113,1235.706787,42.180344z"/>
    <path transform="matrix(-1,0,0,1,0,0)" style="stroke:none;fill:#000000;fill-rule:evenodd" d="M1222.8927,42.932873C1222.834839,42.932377,1222.834839,42.908199,1222.803467,42.895546C1222.707275,42.856773,1222.623657,42.826397,1222.5271,42.788357C1222.491821,42.774448,1222.468628,42.760178,1222.426392,42.74807C1222.365479,42.730618,1222.342285,42.713699,1222.314087,42.666397C1222.294434,42.633579,1222.28479,42.633671,1222.269653,42.615536C1222.227295,42.564781,1222.194092,42.518661,1222.151733,42.467918C1222.141113,42.455181,1222.131592,42.444538,1222.120483,42.432201C1222.112915,42.423752,1222.105225,42.41753,1222.098389,42.408386C1222.092773,42.400642,1222.088867,42.393219,1222.084595,42.384575C1222.075317,42.365662,1222.066772,42.359501,1222.061768,42.32885C1222.056885,42.298203,1222.035889,42.27681,1222.026611,42.247032C1222.018188,42.219498,1222.016113,42.194553,1222.010864,42.166229C1222.005371,42.137405,1221.999756,42.116409,1221.987915,42.0896C1221.937378,41.975372,1221.971313,41.752895,1221.968262,41.733452C1221.960205,41.681911,1221.964355,41.636345,1221.968994,41.584381C1221.970337,41.570026,1221.973755,41.558041,1221.976196,41.543831C1221.983398,41.502083,1221.980591,41.473,1221.99585,41.424427C1222.011108,41.375847,1222.019775,41.332195,1222.014893,41.327415C1221.988037,41.300526,1222.157104,40.860573,1222.194336,40.860573C1222.202637,40.860573,1222.204712,40.840767,1222.209595,40.829762C1222.215698,40.8158,1222.216675,40.794529,1222.225464,40.789135C1222.234131,40.783741,1222.241333,40.76897,1222.241333,40.75631C1222.241333,40.743652,1222.262695,40.703712,1222.28894,40.667553C1222.315186,40.631393,1222.316772,40.602871,1222.336548,40.57074C1222.351074,40.547276,1222.384155,40.545879,1222.384155,40.50798C1222.384155,40.442238,1222.419067,40.406036,1222.441528,40.35257C1222.45105,40.32991,1222.458862,40.310131,1222.471558,40.28907C1222.48584,40.265293,1222.499756,40.245579,1222.518921,40.225571C1222.541016,40.202679,1222.550293,40.218937,1222.573608,40.179501C1222.592163,40.148067,1222.631348,40.125584,1222.654419,40.103065C1222.665283,40.092537,1222.675537,40.08448,1222.685791,40.073463C1222.697754,40.060738,1222.700073,40.044415,1222.717529,40.035072C1222.734985,40.025726,1222.738525,40.010273,1222.749268,39.996521C1222.757446,39.986137,1222.765747,39.977989,1222.771851,39.966305C1222.779053,39.95277,1222.786743,39.942444,1222.791382,39.927879C1222.795044,39.916485,1222.80481,39.90686,1222.81189,39.897202C1222.82666,39.877041,1222.832397,39.874023,1222.854614,39.851814C1222.876831,39.829601,1222.922974,39.800251,1222.957153,39.786591C1222.991211,39.772926,1222.997559,39.758678,1223.019165,39.743404C1223.04187,39.727379,1223.048218,39.712494,1223.083618,39.697136C1223.133789,39.675434,1223.12207,39.662193,1223.138916,39.640068C1223.158813,39.613811,1223.174927,39.603851,1223.198608,39.58099C1223.233276,39.547623,1223.280518,39.526482,1223.307739,39.493828C1223.314819,39.475067,1223.373291,39.414772,1223.391846,39.404926C1223.415039,39.392609,1223.457642,39.344666,1223.480591,39.332047C1223.498169,39.322437,1223.578613,39.243862,1223.633545,39.209568C1223.649902,39.199394,1223.668823,39.202427,1223.686157,39.193695C1223.703491,39.184963,1223.731689,39.170822,1223.748657,39.16227C1223.769043,39.152103,1223.775146,39.161335,1223.789429,39.162327C1223.805664,39.163467,1223.819702,39.164967,1223.835571,39.168758C1223.852173,39.172718,1223.875244,39.167614,1223.881714,39.184574C1223.886963,39.198322,1223.907715,39.199635,1223.919556,39.210411C1223.947754,39.235954,1223.964844,39.264702,1223.98938,39.293755C1224.015381,39.324497,1224.049438,39.358528,1224.066284,39.379467C1224.110596,39.408577,1224.102539,39.429775,1224.10083,39.46022C1224.100098,39.472183,1224.09021,39.479931,1224.082764,39.489346C1224.037598,39.546837,1223.989136,39.587776,1223.935913,39.637951C1223.912109,39.660458,1223.891113,39.679287,1223.865479,39.699825C1223.828491,39.729549,1223.796143,39.754528,1223.756104,39.779968C1223.725586,39.799366,1223.694824,39.808571,1223.665283,39.829464C1223.651978,39.838833,1223.642212,39.848949,1223.630737,39.860447C1223.607056,39.884182,1223.590942,39.90852,1223.566895,39.931885C1223.55249,39.945801,1223.540039,39.957867,1223.523193,39.968655C1223.509033,39.977783,1223.494141,39.980751,1223.479614,39.989277C1223.457275,40.002289,1223.452515,40.017025,1223.419434,40.031876C1223.365723,40.055939,1223.313477,40.122154,1223.257324,40.171692C1223.236206,40.190327,1223.216919,40.205189,1223.19751,40.225571C1223.185059,40.238564,1223.174927,40.243431,1223.164917,40.265259C1223.155029,40.287086,1223.137329,40.290878,1223.122681,40.304947C1223.114136,40.313179,1223.105713,40.319302,1223.098633,40.328758C1223.085693,40.345772,1223.085205,40.365879,1223.06897,40.382149C1223.052734,40.398415,1223.04541,40.43766,1223.028809,40.465492C1222.997681,40.51778,1222.958862,40.5546,1222.927246,40.606571C1222.906738,40.640232,1222.876343,40.676258,1222.876343,40.706974C1222.876343,40.717716,1222.863892,40.744171,1222.848755,40.765759C1222.83374,40.78735,1222.83667,40.809879,1222.825806,40.831871C1222.816284,40.851398,1222.80249,40.864956,1222.79187,40.883934C1222.768433,40.925835,1222.748291,40.93433,1222.733154,41.007885C1222.721924,41.062199,1222.710449,41.08147,1222.703979,41.12228C1222.700317,41.145653,1222.703247,41.166359,1222.699707,41.189751C1222.696777,41.208202,1222.693726,41.224144,1222.687012,41.241573C1222.682495,41.253357,1222.675781,41.262112,1222.669922,41.273323C1222.658691,41.295185,1222.655884,41.319134,1222.638672,41.336323C1222.613892,41.361118,1222.608521,41.384804,1222.612427,41.450916C1222.615234,41.496754,1222.61084,41.559486,1222.602905,41.590321C1222.551514,41.789028,1222.544556,41.852634,1222.586792,41.977428C1222.596802,42.007088,1222.599243,42.022194,1222.59729,42.066284C1222.595215,42.110374,1222.599609,42.14645,1222.606812,42.14645C1222.614136,42.14645,1222.646606,42.171524,1222.679077,42.202164C1222.71167,42.232807,1222.727173,42.2397,1222.755615,42.255844C1222.77478,42.266651,1222.793579,42.270988,1222.812866,42.281387C1222.826416,42.288731,1222.836548,42.297726,1222.850098,42.305199C1222.896606,42.330879,1222.93689,42.353493,1222.987427,42.369862C1223.013916,42.378426,1223.022583,42.384575,1223.065552,42.384575C1223.113525,42.384575,1223.120239,42.401253,1223.150757,42.404419C1223.165405,42.405949,1223.178223,42.404217,1223.192993,42.403507C1223.21228,42.40258,1223.233887,42.387642,1223.248047,42.399387C1223.259155,42.408539,1223.296143,42.415619,1223.3302,42.415119C1223.36438,42.414619,1223.453003,42.414608,1223.527222,42.415092C1223.602783,42.415588,1223.664429,42.409073,1223.66748,42.400276C1223.670288,42.39164,1223.689941,42.384575,1223.71106,42.384575C1223.734619,42.384575,1223.74939,42.375359,1223.74939,42.360764C1223.74939,42.335445,1223.765015,42.332417,1223.873291,42.336731C1223.910889,42.338226,1223.95166,42.331158,1223.963867,42.321014C1223.976074,42.310875,1224.001099,42.307365,1224.019531,42.313221C1224.046265,42.321674,1224.03772,42.300526,1224.048096,42.294685C1224.072021,42.281246,1224.094604,42.273911,1224.118652,42.260674C1224.142578,42.247444,1224.166138,42.239044,1224.184937,42.219173C1224.19751,42.205917,1224.197144,42.205296,1224.2146,42.199738C1224.24585,42.189732,1224.26355,42.204239,1224.294922,42.214123C1224.308105,42.218285,1224.320068,42.219856,1224.333862,42.220566C1224.35144,42.22147,1224.361938,42.207855,1224.379517,42.206451C1224.401855,42.204662,1224.420044,42.181309,1224.440674,42.17239C1224.460571,42.163799,1224.472168,42.147236,1224.487183,42.131683C1224.52063,42.097157,1224.550781,42.101269,1224.581299,42.064259C1224.601318,42.040104,1224.61377,42.014454,1224.638794,41.995567C1224.655884,41.982635,1224.689819,41.978661,1224.694824,41.970604C1224.699707,41.962543,1224.717651,41.955948,1224.734619,41.955948C1224.751587,41.955948,1224.754028,41.94495,1224.765503,41.941929C1224.798096,41.933296,1224.843506,41.9114,1224.861694,41.933342C1224.873901,41.948078,1224.869141,41.977551,1224.874878,42.000961C1224.880859,42.025379,1224.888672,42.039394,1224.895508,42.069813C1224.908813,42.13031,1224.951416,42.152111,1224.901123,42.246746C1224.878906,42.288551,1224.860596,42.338451,1224.860474,42.357635C1224.860107,42.407291,1224.824585,42.41325,1224.798218,42.436489C1224.770386,42.461063,1224.737671,42.462612,1224.707275,42.491253C1224.653687,42.541798,1224.606323,42.502666,1224.559082,42.527451C1224.536865,42.539108,1224.531616,42.515717,1224.505371,42.575077C1224.48999,42.610001,1224.478882,42.62038,1224.457886,42.638577C1224.42627,42.666065,1224.390869,42.67865,1224.352783,42.696163C1224.304199,42.718491,1224.224609,42.727798,1224.209839,42.750004C1224.205444,42.75655,1224.187622,42.764809,1224.170166,42.76836C1224.148315,42.772793,1224.087891,42.782295,1224.054443,42.813488C1224.035889,42.830795,1224.013062,42.844952,1224.003784,42.844952C1223.994507,42.844952,1223.822998,42.905338,1223.744019,42.912422C1223.723999,42.914219,1223.705811,42.909851,1223.686523,42.915638C1223.670166,42.920547,1223.658691,42.930866,1223.644287,42.940201C1223.636353,42.945366,1223.631592,42.953526,1223.622437,42.956078C1223.598267,42.962864,1223.575928,42.950832,1223.550781,42.950191C1223.460083,42.947891,1223.301514,42.933064,1223.291748,42.958275C1223.288818,42.965797,1223.278564,42.969917,1223.269653,42.971951C1223.140381,43.001648,1223.179321,42.935329,1222.8927,42.932873z"/>
    <path transform="matrix(-1,0,0,1,0,0)" style="stroke:none;fill:#000000;fill-rule:evenodd" d="M1226.333862,42.367119C1226.292603,42.366058,1226.278687,42.346703,1226.218384,42.343029C1226.151123,42.338936,1226.130493,42.320381,1226.082275,42.312386C1226.057983,42.308372,1226.036499,42.310135,1226.012573,42.304863C1225.98645,42.299122,1225.965698,42.288422,1225.940186,42.280449C1225.912598,42.271824,1225.919312,42.257576,1225.86084,42.257576C1225.807983,42.257576,1225.809082,42.270367,1225.78125,42.27742C1225.7771,42.278477,1225.77356,42.280663,1225.769287,42.280483C1225.714844,42.278229,1225.665649,42.22448,1225.622314,42.229347C1225.591919,42.232773,1225.593262,42.20882,1225.577881,42.197353C1225.565552,42.188118,1225.555908,42.178894,1225.542969,42.170361C1225.524048,42.157742,1225.506348,42.149155,1225.486206,42.138355C1225.472168,42.130852,1225.461426,42.120663,1225.445923,42.117722C1225.441284,42.116848,1225.43689,42.120525,1225.432495,42.119076C1225.409424,42.111637,1225.408936,42.087746,1225.380615,42.073208C1225.352173,42.058666,1225.340942,42.042233,1225.317383,42.02914C1225.313354,42.026939,1225.309448,42.026054,1225.30542,42.02404C1225.292847,42.017784,1225.289551,42.021996,1225.270508,42.004196C1225.251343,41.986389,1225.227905,41.971825,1225.218384,41.971825C1225.199707,41.971825,1225.171753,41.922253,1225.146484,41.895771C1225.134521,41.883266,1225.130981,41.873077,1225.112061,41.860233C1225.080566,41.838833,1225.059937,41.819084,1224.994873,41.748241C1224.982178,41.734413,1224.971802,41.716946,1224.971802,41.709427C1224.971802,41.701904,1224.953369,41.676529,1224.930908,41.653034C1224.873047,41.592659,1224.842163,41.603809,1224.828979,41.685982C1224.779785,41.741135,1224.798096,41.717194,1224.782227,41.734547C1224.756104,41.762852,1224.720215,41.752201,1224.709473,41.817043C1224.678345,41.897598,1224.682739,41.864906,1224.660034,41.882397C1224.647339,41.892223,1224.635376,41.881943,1224.617432,41.899841C1224.604004,41.913239,1224.585449,41.924198,1224.57605,41.924198C1224.566772,41.924198,1224.559082,41.934761,1224.559082,41.947666C1224.559082,41.977917,1224.420898,41.975067,1224.40918,41.944576C1224.404785,41.933369,1224.383789,41.924198,1224.362427,41.924198C1224.332031,41.924198,1224.321167,41.9137,1224.312988,41.876415C1224.307251,41.850136,1224.29126,41.806171,1224.277588,41.778725C1224.254395,41.732338,1224.254761,41.727333,1224.281494,41.707756C1224.305786,41.689987,1224.312012,41.652805,1224.321533,41.470261C1224.328979,41.329082,1224.3396,41.249706,1224.352051,41.241966C1224.362671,41.235439,1224.374878,41.195454,1224.379272,41.153114C1224.384277,41.105549,1224.402466,41.085835,1224.416992,41.050411C1224.432007,41.013622,1224.454468,40.989735,1224.463989,40.947006C1224.473633,40.904274,1224.489136,40.890961,1224.497803,40.859196C1224.509766,40.815582,1224.516357,40.796307,1224.519043,40.731796C1224.525146,40.587299,1224.546509,40.565506,1224.564697,40.476604C1224.570923,40.446075,1224.582886,40.431557,1224.584595,40.389832C1224.586182,40.348106,1224.594482,40.31168,1224.602783,40.30888C1224.612183,40.305775,1224.604126,40.262085,1224.605103,40.2369C1224.606934,40.194023,1224.606689,40.157097,1224.61145,40.114445C1224.620483,40.03373,1224.668701,39.963974,1224.650757,39.885754C1224.642578,39.850006,1224.640259,39.780281,1224.645752,39.730804C1224.651489,39.678112,1224.647461,39.665386,1224.640137,39.631275C1224.637207,39.617691,1224.628784,39.607803,1224.625854,39.594223C1224.622559,39.579376,1224.620239,39.565815,1224.623047,39.55088C1224.629395,39.517715,1224.648804,39.493637,1224.664063,39.46357C1224.671387,39.449432,1224.678711,39.437931,1224.686035,39.423882C1224.697632,39.401894,1224.866455,39.133797,1224.884033,39.109749C1224.894897,39.094799,1224.895996,39.090771,1224.919922,39.080647C1224.928955,39.072662,1224.948242,39.064148,1224.96167,39.058758C1224.967163,39.046326,1225.053955,38.971348,1225.067139,38.960331C1225.105469,38.928188,1225.30127,38.83992,1225.328125,38.82785C1225.375122,38.806801,1225.413696,38.816883,1225.459473,38.821404C1225.492432,38.824657,1225.591309,38.828568,1225.628418,38.828568C1225.665405,38.828568,1225.685303,38.812218,1225.716797,38.808723C1225.726563,38.807632,1225.735107,38.808437,1225.745117,38.808723C1225.768921,38.809418,1225.789429,38.810684,1225.813232,38.812695C1225.864746,38.817047,1225.924194,38.795494,1225.960205,38.828957C1225.979126,38.846634,1225.996826,38.843819,1226.016235,38.852825C1226.045654,38.866554,1226.070068,38.879963,1226.098999,38.894848C1226.139404,38.91568,1226.172852,38.935909,1226.213989,38.955067C1226.234497,38.96455,1226.25354,38.969162,1226.27356,38.979382C1226.28772,38.986565,1226.298462,38.995026,1226.312012,39.003193C1226.361206,39.032906,1226.405396,39.055164,1226.453735,39.086327C1226.468018,39.095528,1226.479858,39.10416,1226.493408,39.114319C1226.515015,39.130428,1226.532104,39.146191,1226.553955,39.161945C1226.578491,39.179672,1226.599609,39.195145,1226.626221,39.209568C1226.641113,39.217594,1226.616089,39.20348,1226.67041,39.228771C1226.704224,39.263618,1226.816406,39.384193,1226.855713,39.384193C1226.88269,39.400658,1226.870483,39.389355,1226.887329,39.40733C1226.897217,39.416683,1226.914185,39.438644,1226.940308,39.450241C1226.966187,39.466904,1226.987915,39.480663,1226.987915,39.492085C1227.006348,39.50563,1227.002441,39.504078,1227.033203,39.528606C1227.071899,39.55481,1227.102173,39.576191,1227.131348,39.615093C1227.160522,39.653992,1227.181152,39.670395,1227.196655,39.685822C1227.203491,39.702595,1227.217529,39.714397,1227.227905,39.749321C1227.238403,39.784245,1227.258911,39.80344,1227.268311,39.81282C1227.276978,39.827129,1227.277344,39.825104,1227.289551,39.838013C1227.300781,39.852394,1227.32019,39.865616,1227.336304,39.880829C1227.356079,39.899517,1227.386841,39.913818,1227.39209,39.935009C1227.397217,39.955116,1227.411865,39.971569,1227.424805,39.971569C1227.439209,39.971569,1227.440552,39.996605,1227.448364,40.010509C1227.4729,40.054661,1227.489502,40.094944,1227.514282,40.139023C1227.523926,40.156174,1227.53479,40.169373,1227.543579,40.186954C1227.550049,40.199966,1227.552979,40.212326,1227.559082,40.225571C1227.579346,40.269947,1227.622925,40.310505,1227.622925,40.349464C1227.622925,40.366085,1227.646973,40.394386,1227.658691,40.419201C1227.705811,40.519466,1227.753418,40.603474,1227.783813,40.71003C1227.793701,40.74506,1227.793213,40.777016,1227.799316,40.812946C1227.803833,40.840103,1227.813477,40.847767,1227.813477,40.890327C1227.813477,40.932884,1227.824341,40.998646,1227.837769,41.036465C1227.851074,41.07428,1227.858521,41.114239,1227.854248,41.125263C1227.850098,41.136288,1227.85376,41.149738,1227.862549,41.155155C1227.878174,41.164795,1227.869995,41.261856,1227.851074,41.292526C1227.822144,41.33934,1227.830933,41.468918,1227.865479,41.50536C1227.923706,41.566837,1227.934204,41.557697,1227.989624,41.396927C1228.007568,41.344898,1228.101196,40.889416,1228.109131,40.845211C1228.114746,40.814369,1228.126465,40.780029,1228.135254,40.768906C1228.144165,40.757786,1228.137207,40.720757,1228.144531,40.71122C1228.151978,40.701687,1228.167236,40.647449,1228.178589,40.590698C1228.199463,40.485767,1228.265625,40.372814,1228.266724,40.358047C1228.268066,40.340008,1228.349731,40.183681,1228.359985,40.12635C1228.366455,40.089695,1228.416748,40.050621,1228.416748,40.021877C1228.431763,39.998077,1228.426514,40.004452,1228.456421,39.955696C1228.480225,39.942959,1228.484253,39.920609,1228.496094,39.899666C1228.514038,39.867733,1228.514771,39.837299,1228.53772,39.803596C1228.582397,39.737736,1228.595337,39.644859,1228.654541,39.578964C1228.66687,39.565262,1228.683105,39.559967,1228.698486,39.549858C1228.727539,39.530796,1228.751831,39.513351,1228.78186,39.495819C1228.802856,39.483517,1228.791626,39.486313,1228.843628,39.46357C1228.88501,39.431694,1228.882935,39.429878,1228.906982,39.414482C1228.931396,39.398811,1228.955566,39.388752,1228.981689,39.374943C1229.015747,39.357002,1229.04248,39.336018,1229.078857,39.323792C1229.099976,39.31673,1229.119385,39.313091,1229.141479,39.313496C1229.160522,39.313847,1229.200439,39.311008,1229.219238,39.313274C1229.257813,39.317909,1229.249756,39.308907,1229.305664,39.328632C1229.31665,39.332504,1229.388184,39.34626,1229.417114,39.353756C1229.483643,39.371017,1229.553955,39.393227,1229.603394,39.409325C1229.618042,39.41811,1229.801392,39.533096,1229.828125,39.559868C1229.85498,39.586636,1230.008423,39.656055,1230.02002,39.677883C1230.031738,39.699711,1230.04834,39.702358,1230.061401,39.717571C1230.071289,39.729172,1230.076538,39.741642,1230.086426,39.753288C1230.099731,39.768887,1230.112427,39.781193,1230.128174,39.794209C1230.143311,39.806664,1230.15918,39.813438,1230.174316,39.825958C1230.217651,39.862045,1230.251221,39.897411,1230.28833,39.939819C1230.299927,39.952976,1230.308838,39.95768,1230.318848,39.979507C1230.34082,40.027817,1230.363037,40.031853,1230.399658,39.98896C1230.415283,39.970768,1230.426392,39.974358,1230.441772,39.961811C1230.452026,39.953381,1230.457764,39.942856,1230.4646,39.931385C1230.51709,39.842377,1230.573853,39.692516,1230.585327,39.662006C1230.591797,39.644543,1230.61377,39.60815,1230.634033,39.581131C1230.654419,39.554115,1230.669189,39.485447,1230.69812,39.439259C1230.727173,39.392941,1230.797974,39.328445,1230.797974,39.319256C1230.797974,39.31007,1230.864502,39.230621,1230.897217,39.195648C1230.930054,39.160564,1230.934692,39.129688,1230.956909,39.095406C1231.061646,38.933823,1231.24353,38.676167,1231.272827,38.645123C1231.302124,38.614079,1231.321777,38.61549,1231.345703,38.596191C1231.390747,38.559788,1231.424072,38.522522,1231.464722,38.481266C1231.527466,38.417599,1231.572144,38.353905,1231.639282,38.29493C1231.667114,38.270531,1231.703613,38.245026,1231.725098,38.233253C1231.75647,38.216095,1231.880493,38.169865,1231.927734,38.15134C1232.02417,38.068218,1232.371094,38.118324,1232.481689,38.215614C1232.514282,38.226112,1232.587769,38.270157,1232.602295,38.280731C1232.617798,38.292099,1232.734741,38.457222,1232.734741,38.493084C1232.734741,38.511707,1232.741699,38.526943,1232.750122,38.526943C1232.758545,38.526943,1232.783447,38.566235,1232.80542,38.614254C1232.838867,38.687355,1232.850342,38.682468,1232.897827,38.75716C1232.913086,38.75716,1232.96875,38.841194,1233.068115,39.013752C1233.19812,39.239845,1233.180908,39.577831,1233.17981,39.590569C1233.177856,39.612396,1233.181519,39.688164,1233.187866,39.758945C1233.196045,39.84927,1233.16333,39.922024,1233.163208,39.93679C1233.163208,39.951553,1233.152466,39.984093,1233.139404,40.009102C1233.125244,40.036232,1233.115723,40.097458,1233.115723,40.160904C1233.115723,40.232906,1233.105957,40.287411,1233.085571,40.329746C1233.06897,40.364128,1233.050171,40.427979,1233.043823,40.471634C1233.037476,40.515289,1233.025513,40.559521,1233.017334,40.569923C1233.009033,40.580326,1233.001465,40.635845,1233.00061,40.693298C1232.999634,40.758984,1232.991211,40.804245,1232.978027,40.815235C1232.964966,40.826088,1232.956909,40.867714,1232.956909,40.925079C1232.956909,40.975883,1232.950684,41.021355,1232.942871,41.026127C1232.935181,41.030903,1232.92395,41.068829,1232.917847,41.110409C1232.911865,41.151989,1232.896729,41.201832,1232.884277,41.221172C1232.871826,41.240509,1232.861694,41.270107,1232.861694,41.286942C1232.861694,41.303776,1232.833374,41.546883,1232.710938,41.570614C1232.684692,41.575684,1232.646973,41.595802,1232.627197,41.615303C1232.57312,41.668339,1232.438354,41.575558,1232.373535,41.575165C1232.353882,41.575047,1232.328491,41.543198,1232.317017,41.543198C1232.296875,41.543198,1232.226685,41.461201,1232.226685,41.43771C1232.226685,41.43137,1232.21106,41.409557,1232.192017,41.389233C1232.166504,41.362053,1232.194946,41.187431,1232.194946,41.172623C1232.194946,41.159023,1232.231079,40.998779,1232.240967,40.967205C1232.249756,40.939117,1232.272095,40.862556,1232.290649,40.797073C1232.309204,40.731586,1232.329712,40.667294,1232.33606,40.654198C1232.342529,40.641102,1232.363525,40.467426,1232.37207,40.462162C1232.411499,40.437759,1232.406372,40.229836,1232.413818,40.219833C1232.446899,40.175549,1232.439819,40.106762,1232.450928,40.0453C1232.466553,39.95787,1232.491089,39.851303,1232.487915,39.794228C1232.485229,39.7477,1232.479248,39.637516,1232.474487,39.549377C1232.469849,39.461235,1232.45874,39.370152,1232.449951,39.346973C1232.44104,39.323788,1232.424194,39.259884,1232.407959,39.213799C1232.375366,39.12154,1232.306152,38.971069,1232.306152,38.953499C1232.306152,38.921246,1232.268433,38.90292,1232.247437,38.876194C1232.237549,38.863533,1232.227173,38.860119,1232.218628,38.840473C1232.209229,38.819298,1232.188965,38.804756,1232.168579,38.804756C1232.14978,38.804756,1232.128906,38.7994,1232.122314,38.79285C1232.077637,38.748608,1231.942993,38.781536,1231.915771,38.843369C1231.898315,38.882858,1231.874512,38.909218,1231.851074,38.915112C1231.830688,38.920235,1231.813965,38.931431,1231.813965,38.939995C1231.813965,38.948563,1231.71814,39.032658,1231.667114,39.083096C1231.63501,39.11488,1231.610962,39.146011,1231.575806,39.174545C1231.549438,39.19603,1231.519775,39.232933,1231.497192,39.258392C1231.460693,39.2995,1231.453735,39.332756,1231.424561,39.368492C1231.394775,39.40501,1231.361938,39.429695,1231.329102,39.46357C1231.304321,39.489189,1231.281616,39.510048,1231.259521,39.538036C1231.246338,39.554653,1231.236572,39.57003,1231.226074,39.588455C1231.174927,39.678879,1231.137939,39.764618,1231.085205,39.854137C1231.051514,39.911346,1231.022583,39.976139,1230.987915,40.010834C1230.953247,40.045525,1230.907104,40.175289,1230.868286,40.265938C1230.799805,40.425995,1230.727173,40.55994,1230.687988,40.729603C1230.661011,40.846409,1230.653687,41.040104,1230.640625,41.080021C1230.632202,41.090923,1230.635742,41.133621,1230.625,41.186012C1230.614258,41.2384,1230.595825,41.316978,1230.583984,41.360638C1230.572144,41.404293,1230.557617,41.46357,1230.551758,41.492359C1230.545898,41.521152,1230.526978,41.539894,1230.510742,41.563652C1230.494263,41.58786,1230.482056,41.610813,1230.457397,41.626713C1230.44751,41.633121,1230.435181,41.639343,1230.423828,41.642731C1230.387085,41.653748,1230.359741,41.667725,1230.321655,41.672832C1230.28479,41.677784,1230.231323,41.667179,1230.215454,41.666183C1230.154175,41.66235,1230.140381,41.656094,1230.103027,41.641052C1230.077515,41.630825,1230.056152,41.618973,1230.036011,41.60046C1230.026123,41.591434,1230.019409,41.581608,1230.013428,41.569683C1229.99231,41.527931,1229.979492,41.488518,1229.973633,41.442108C1229.965088,41.373096,1229.979004,41.31303,1229.984253,41.24369C1229.988037,41.194267,1229.985229,41.146114,1229.998413,41.102768C1230.010986,41.061237,1230.018188,41.015022,1230.014404,41.000065C1230.01062,40.985104,1230.044434,40.888554,1230.035522,40.828823C1230.024658,40.755581,1229.961426,40.690975,1229.949707,40.63546C1229.944702,40.612064,1229.842896,40.421406,1229.822021,40.3829C1229.801025,40.344391,1229.784302,40.250496,1229.754028,40.225128C1229.689209,40.171017,1229.478394,40.021812,1229.370483,39.922623C1229.329346,39.88475,1229.205078,39.89222,1229.120972,39.916008C1229.106323,39.920162,1229.094727,39.928547,1229.084473,39.939819C1229.048462,39.979324,1229.035034,40.026096,1229.013184,40.074905C1229.004761,40.093773,1228.877075,40.220371,1228.877075,40.249493C1228.877075,40.263237,1228.862671,40.293987,1228.845093,40.317822C1228.827393,40.34166,1228.809937,40.385365,1228.806152,40.414944C1228.80249,40.444523,1228.79126,40.456413,1228.783203,40.47871C1228.771484,40.511147,1228.759033,40.525867,1228.74939,40.571304C1228.739624,40.616737,1228.725952,40.630119,1228.717041,40.66293C1228.710083,40.688568,1228.702393,40.701416,1228.702393,40.737438C1228.702393,40.773453,1228.678589,40.832108,1228.668213,40.873604C1228.655762,40.928669,1228.652588,40.944942,1228.650024,40.969894C1228.638672,41.034863,1228.617554,41.143051,1228.608521,41.162197C1228.595825,41.189198,1228.587646,41.213776,1228.580811,41.242813C1228.568481,41.294949,1228.569336,41.30447,1228.560425,41.394539C1228.525391,41.501389,1228.525024,41.507664,1228.549805,41.604595C1228.581543,41.728054,1228.516479,41.893429,1228.467285,41.954624C1228.439453,41.989254,1228.425293,42.041344,1228.394775,42.082951C1228.385498,42.095573,1228.375122,42.11924,1228.361328,42.126579C1228.315308,42.151028,1228.269775,42.133614,1228.217041,42.138851C1228.183228,42.14222,1228.092163,42.167068,1228.068481,42.167068C1228.044678,42.167068,1228.027344,42.163372,1228.015015,42.130573C1228.005127,42.104382,1227.993286,42.099728,1227.976196,42.086918C1227.960815,42.075443,1227.945313,42.066593,1227.928955,42.056625C1227.906616,42.043018,1227.891235,42.027512,1227.869019,42.013752C1227.829346,41.989254,1227.776367,41.988461,1227.746704,41.961411C1227.673096,41.894516,1227.503418,41.902691,1227.473145,41.965614C1227.463379,41.990959,1227.454956,41.990959,1227.443848,42.003574C1227.432251,42.0168,1227.421265,42.027206,1227.408447,42.0392C1227.392334,42.054173,1227.379272,42.067963,1227.360962,42.080231C1227.345459,42.090698,1227.330322,42.096603,1227.313354,42.104603C1227.275024,42.122719,1227.254639,42.136757,1227.202271,42.152863C1227.149902,42.168972,1227.124756,42.193226,1227.079224,42.196182C1227.069214,42.196835,1227.067017,42.196991,1227.048218,42.198349C1227.044556,42.19862,1227.031128,42.203888,1227.026855,42.204742C1226.999878,42.210224,1226.99707,42.216492,1226.976074,42.234413C1226.956787,42.250805,1226.944824,42.269917,1226.924438,42.284809C1226.912231,42.293781,1226.907227,42.305199,1226.886108,42.305199C1226.86499,42.305199,1226.856079,42.321228,1226.838501,42.325043C1226.832153,42.326401,1226.826294,42.323914,1226.82019,42.325619C1226.792969,42.333088,1226.777344,42.358707,1226.749878,42.364582C1226.725708,42.36972,1226.704346,42.35907,1226.679688,42.358578C1226.61084,42.357197,1226.551758,42.371758,1226.483032,42.367527C1226.468506,42.366638,1226.456665,42.361778,1226.442261,42.360603C1226.418213,42.358643,1226.397339,42.35907,1226.373291,42.360996C1226.359375,42.36211,1226.3479,42.367481,1226.333862,42.367119zM1225.997437,42.182499C1225.981323,42.166363,1225.968018,42.190659,1225.981201,42.212082C1225.991211,42.228264,1225.994995,42.228279,1226.000366,42.212143C1226.004028,42.201115,1226.002686,42.187775,1225.997437,42.182499zM1226.553589,41.900387C1226.56604,41.895504,1226.57251,41.884216,1226.583496,41.876575C1226.592285,41.870487,1226.599731,41.864773,1226.609619,41.860821C1226.67627,41.834213,1226.73877,41.825813,1226.809937,41.816883C1226.823486,41.815186,1226.835449,41.818031,1226.848877,41.815578C1226.86853,41.811989,1226.883301,41.797199,1226.902954,41.797199C1226.924072,41.797199,1226.963013,41.771004,1226.999023,41.732407C1227.032227,41.69677,1227.086182,41.639328,1227.118896,41.604767C1227.151611,41.570198,1227.178467,41.53149,1227.178467,41.518745C1227.178467,41.506001,1227.185303,41.495575,1227.193604,41.495575C1227.201904,41.495575,1227.213135,41.472359,1227.218384,41.443981C1227.223633,41.415604,1227.229858,41.381668,1227.2323,41.368572C1227.234741,41.355476,1227.246216,41.325115,1227.25769,41.301105C1227.27417,41.267025,1227.260498,41.246357,1227.260254,41.216854C1227.260132,41.192558,1227.256226,41.17178,1227.257202,41.147503C1227.257813,41.133671,1227.262207,41.122105,1227.262085,41.108265C1227.261719,41.043182,1227.240723,41.053871,1227.236572,40.924072C1227.233032,40.811924,1227.210693,40.831436,1227.189697,40.784298C1227.177246,40.756313,1227.15979,40.735775,1227.146729,40.708103C1227.122314,40.65662,1227.112793,40.567551,1227.087524,40.556412C1227.069824,40.548599,1227.036621,40.412933,1226.987915,40.348568C1226.974976,40.331402,1226.957031,40.323124,1226.941895,40.307869C1226.920532,40.28643,1226.906128,40.264473,1226.88501,40.242817C1226.839478,40.195984,1226.763916,40.137096,1226.747681,40.116276C1226.731323,40.095451,1226.71521,40.07341,1226.701782,40.042637C1226.693237,40.022999,1226.679565,40.00079,1226.664795,39.985275C1226.621216,39.939594,1226.576294,39.931595,1226.535278,39.87598C1226.514404,39.847641,1226.473877,39.810211,1226.44519,39.792812C1226.416626,39.775414,1226.385986,39.751968,1226.377075,39.740711C1226.368164,39.729458,1226.321533,39.700706,1226.29187,39.678867C1226.25061,39.648418,1226.22522,39.591713,1226.174316,39.591099C1226.150391,39.590805,1226.130737,39.583427,1226.130737,39.574696C1226.130737,39.565964,1226.034058,39.544739,1226.011597,39.511196C1225.987427,39.474991,1225.967773,39.46365,1225.929199,39.463615C1225.901367,39.463589,1225.874146,39.456429,1225.868774,39.447693C1225.855103,39.425556,1225.755859,39.445499,1225.695435,39.438908C1225.670044,39.436127,1225.648926,39.427616,1225.623291,39.426743C1225.58728,39.425514,1225.549927,39.441608,1225.520874,39.436897C1225.490112,39.431908,1225.463379,39.435696,1225.457031,39.445946C1225.45105,39.455639,1225.433105,39.46357,1225.417236,39.46357C1225.373169,39.46357,1225.36499,39.526081,1225.401001,39.587128C1225.429077,39.660591,1225.421143,39.651512,1225.41748,39.688469C1225.408569,39.6917,1225.408691,39.72464,1225.417847,39.773132C1225.428467,39.829029,1225.427124,39.875088,1225.413452,39.928841C1225.398193,39.988438,1225.398193,40.011887,1225.413086,40.035786C1225.423584,40.052616,1225.432251,40.075859,1225.432251,40.087437C1225.432251,40.099014,1225.446533,40.138054,1225.463989,40.174198C1225.481445,40.210339,1225.495728,40.253948,1225.495728,40.271107C1225.495728,40.288261,1225.501343,40.304684,1225.508301,40.307594C1225.515137,40.310505,1225.540649,40.339245,1225.564941,40.371471C1225.592163,40.407581,1225.610962,40.404007,1225.622559,40.430847C1225.636963,40.464203,1225.626099,40.469494,1225.632935,40.505154C1225.635498,40.5187,1225.629272,40.546291,1225.629761,40.560078C1225.630249,40.573418,1225.622681,40.574551,1225.622681,40.593624C1225.622681,40.67207,1225.570435,40.709576,1225.518799,40.762146C1225.510986,40.770172,1225.469604,40.788654,1225.459473,40.790916C1225.42981,40.797569,1225.457275,40.805012,1225.392456,40.805012C1225.327759,40.805012,1225.32312,40.802288,1225.331421,40.769291C1225.337891,40.74334,1225.302734,40.721394,1225.296753,40.718365C1225.281738,40.710747,1225.272217,40.70182,1225.251343,40.70182C1225.204956,40.70182,1225.187256,40.791107,1225.220947,40.855877C1225.2323,40.877918,1225.233521,40.911942,1225.241699,40.941761C1225.246094,40.957943,1225.250977,40.971531,1225.255859,40.987572C1225.27124,41.037556,1225.283936,41.08054,1225.299438,41.130447C1225.319336,41.194252,1225.326172,41.253384,1225.357544,41.312382C1225.375,41.345177,1225.406372,41.362453,1225.423462,41.395607C1225.453369,41.454002,1225.569702,41.574883,1225.595947,41.574924C1225.603149,41.574936,1225.631714,41.592251,1225.659424,41.6134C1225.687256,41.634548,1225.72937,41.656685,1225.753052,41.662586C1225.776733,41.668495,1225.814575,41.690479,1225.837158,41.711449C1225.859863,41.732418,1225.89502,41.749573,1225.915405,41.749573C1225.956055,41.766502,1225.936768,41.757469,1225.976807,41.786858C1225.997192,41.817963,1226.019287,41.825718,1226.109619,41.833649C1226.170776,41.839012,1226.245483,41.857368,1226.281006,41.875805C1226.324585,41.898384,1226.359741,41.905518,1226.394775,41.89893C1226.44165,41.90078,1226.441528,41.900772,1226.474609,41.906322C1226.52771,41.910484,1226.527832,41.910496,1226.553589,41.900387z"/>
    <path transform="matrix(-1,0,0,1,0,0)" style="stroke:none;fill:#000000;fill-rule:evenodd" d="M1223.503784,37.572487C1223.471802,37.563911,1223.435059,37.522469,1223.433716,37.43597C1223.394043,37.367985,1223.402832,37.391727,1223.375488,37.322395C1223.358154,37.317856,1223.359009,37.282658,1223.346802,37.274593C1223.321045,37.257462,1223.311157,37.246479,1223.267456,37.235291C1223.219482,37.22298,1223.216919,37.205399,1223.18811,37.1926C1223.166748,37.18314,1223.146729,37.179451,1223.125366,37.170258C1223.073608,37.148045,1223.02124,37.137745,1222.981689,37.097572C1222.958252,37.0737,1222.973999,37.044014,1222.939941,37.011505C1222.896118,36.980064,1222.909668,36.951992,1222.900146,36.91758C1222.88855,36.875458,1222.875488,36.83699,1222.882935,36.793919C1222.886353,36.773594,1222.896729,36.757359,1222.910034,36.741631C1222.925049,36.723965,1222.945801,36.72377,1222.963013,36.701942C1222.980225,36.680115,1223.004028,36.675816,1223.026489,36.662254C1223.047729,36.64941,1223.066284,36.639053,1223.087769,36.626453C1223.141602,36.594704,1223.186523,36.565205,1223.241455,36.535255C1223.257813,36.526321,1223.272339,36.519665,1223.289063,36.511444C1223.306274,36.502995,1223.320923,36.495522,1223.338379,36.487629C1223.352295,36.481346,1223.364136,36.475681,1223.37854,36.470699C1223.393555,36.46553,1223.398193,36.456032,1223.422241,36.458794C1223.462158,36.463383,1223.504272,36.468704,1223.504272,36.529625C1223.542847,36.580135,1223.594727,36.683899,1223.610107,36.711044C1223.63562,36.755898,1223.641846,36.80143,1223.659424,36.849915C1223.669922,36.878811,1223.68457,36.898514,1223.690063,36.932278C1223.695435,36.966042,1223.717163,36.975372,1223.720703,37.001698C1223.729736,37.067177,1223.732788,37.149387,1223.693604,37.188583C1223.663696,37.218552,1223.650635,37.220387,1223.63916,37.23455C1223.615845,37.263096,1223.603271,37.28933,1223.605347,37.318333C1223.613403,37.434601,1223.610718,37.362953,1223.636597,37.421608C1223.658936,37.472374,1223.623657,37.542995,1223.572266,37.56638C1223.552246,37.575527,1223.534424,37.582176,1223.532593,37.581165C1223.530884,37.580154,1223.517944,37.576248,1223.503784,37.572487z"/>
    <path transform="matrix(-1,0,0,1,0,0)" style="stroke:none;fill:#000000;fill-rule:evenodd" d="M1222.991211,39.436157C1222.894531,39.436951,1222.728271,39.377083,1222.722778,39.371563C1222.717163,39.366039,1222.666504,39.364525,1222.636719,39.358192C1222.542725,39.338203,1222.460938,39.322006,1222.371704,39.28635C1222.321167,39.266167,1222.26416,39.218292,1222.234985,39.212448C1222.205688,39.2066,1222.180542,39.17709,1222.148682,39.163368C1222.102417,39.143448,1222.058228,39.138706,1222.010864,39.121506C1221.954956,39.101208,1221.908691,39.079445,1221.85437,39.055077C1221.814087,39.03701,1221.780273,39.020035,1221.740479,39.001102C1221.708008,38.985683,1221.673828,38.990166,1221.647705,38.956944C1221.628784,38.932934,1221.606812,38.912395,1221.598877,38.911304C1221.590942,38.91021,1221.560181,38.872314,1221.547363,38.858406C1221.505981,38.813873,1221.442139,38.812576,1221.396729,38.772247C1221.364258,38.743393,1221.344238,38.779465,1221.322754,38.67252C1221.317261,38.644871,1221.311523,38.63533,1221.306641,38.611652C1221.300781,38.582813,1221.299683,38.545063,1221.298096,38.529263C1221.292358,38.474056,1221.298828,38.444973,1221.317017,38.444973C1221.327148,38.444973,1221.362915,38.415131,1221.396606,38.378658C1221.460083,38.309868,1221.529541,38.382599,1221.601074,38.380119C1221.667603,38.377815,1221.772339,38.367638,1221.790894,38.365597C1221.807983,38.363716,1221.838501,38.370956,1221.838623,38.377506C1221.838623,38.384056,1221.859497,38.401245,1221.884888,38.415707C1221.910889,38.430462,1222.019043,38.505138,1222.032227,38.51659C1222.045288,38.528042,1222.098633,38.572342,1222.154663,38.576092C1222.24292,38.581993,1222.244385,38.607857,1222.291748,38.627007C1222.330078,38.64246,1222.360352,38.662453,1222.399902,38.674183C1222.428467,38.682629,1222.477783,38.68214,1222.483765,38.688114C1222.489746,38.694088,1222.521606,38.698975,1222.554565,38.698975C1222.587524,38.698975,1222.599976,38.705265,1222.623169,38.713089C1222.642456,38.71957,1222.651611,38.732136,1222.675537,38.738163C1222.699585,38.74419,1222.709717,38.75716,1222.729126,38.76511C1222.751587,38.7743,1222.772949,38.776482,1222.795044,38.786312C1222.903564,38.83445,1222.985718,38.897163,1223.088745,38.956001C1223.11145,38.968956,1223.136597,38.973019,1223.153809,38.992661C1223.163696,39.003922,1223.164307,39.027988,1223.1698,39.03236C1223.273315,39.114037,1223.24292,39.290779,1223.11499,39.351841C1223.083496,39.366909,1223.088135,39.401466,1223.063721,39.417435C1223.04187,39.431808,1223.017456,39.43594,1222.991211,39.436157z"/>
    <path transform="matrix(-1,0,0,1,0,0)" style="stroke:none;fill:#000000;fill-rule:evenodd" d="M1217.647339,44.644051C1217.744263,44.595627,1217.752075,44.582275,1217.779297,44.418697C1217.797363,44.309296,1217.797485,44.289757,1217.779541,44.209145C1217.719238,43.938099,1217.696899,43.813507,1217.684692,43.682095C1217.661133,43.426292,1217.634277,43.260983,1217.589844,43.097893C1217.56604,43.010582,1217.540283,42.896282,1217.532471,42.843895C1217.50769,42.674854,1217.466919,42.445854,1217.447876,42.368099C1217.437622,42.326439,1217.42395,42.240715,1217.41748,42.177597C1217.410889,42.114483,1217.391846,42.011406,1217.374878,41.94854C1217.272339,41.565895,1217.202759,41.212509,1217.202759,41.074661C1217.202759,41.001621,1217.141479,40.7136,1217.111694,40.64679C1217.059692,40.530109,1217.014648,40.305275,1216.999512,40.087856C1216.983276,39.852917,1216.975098,39.800667,1216.930908,39.652321C1216.810547,39.247887,1216.839355,38.976753,1217.003906,38.966824C1217.053833,38.963802,1217.192017,38.947899,1217.310791,38.931488C1217.548706,38.898598,1217.503296,38.899254,1218.891846,38.908527C1219.59668,38.913235,1219.59668,38.913235,1219.60083,38.970139C1219.607056,39.058559,1219.707764,39.084137,1219.871338,39.038895C1219.919434,39.02562,1219.907593,38.627731,1219.858032,38.587566C1219.78833,38.531128,1219.307617,38.465073,1218.891846,38.454788C1218.797607,38.452457,1218.649048,38.440662,1218.561646,38.428581C1218.269897,38.388206,1217.331177,38.407295,1217.10791,38.458141C1216.947876,38.49456,1216.917969,38.494507,1216.893921,38.457748C1216.87561,38.429893,1216.862183,38.424988,1216.794678,38.421719C1216.740479,38.419098,1216.713623,38.412079,1216.707397,38.398884C1216.69458,38.372101,1216.635376,38.120331,1216.613403,37.998707C1216.603149,37.942757,1216.588745,37.880852,1216.581299,37.861145C1216.57373,37.841438,1216.561646,37.755772,1216.554321,37.670776C1216.546875,37.585777,1216.535889,37.493374,1216.529663,37.465431C1216.505737,37.357117,1216.467163,37.088104,1216.447754,36.893932C1216.436523,36.782173,1216.415771,36.615997,1216.401489,36.524651C1216.387329,36.433308,1216.379272,36.344177,1216.383667,36.32658C1216.394775,36.282726,1216.336304,35.822517,1216.311401,35.757675C1216.298462,35.723675,1216.270996,35.539108,1216.249268,35.338177C1216.242065,35.27182,1216.224976,35.131802,1216.211426,35.027027C1216.197754,34.922253,1216.175659,34.713654,1216.162231,34.563477C1216.148682,34.4133,1216.12915,34.247562,1216.118774,34.195175C1216.108398,34.142509,1216.096313,33.983528,1216.091797,33.839577C1216.08374,33.579475,1216.047119,33.076832,1216.019653,32.848972C1215.994995,32.644512,1215.978394,31.750906,1215.997559,31.65517C1216.003906,31.623737,1216.020264,31.50658,1216.034058,31.394821C1216.083618,30.991465,1216.109131,30.882128,1216.19165,30.718313C1216.216919,30.668091,1216.254272,30.585447,1216.27478,30.53466C1216.384277,30.262093,1216.462524,30.194668,1216.669312,30.194668C1216.751221,30.194668,1217.198975,30.414881,1217.317261,30.513317C1217.359009,30.548094,1217.41748,30.587923,1217.447266,30.601828C1217.509155,30.6308,1217.574463,30.667448,1217.58374,30.678391C1217.597656,30.694727,1217.727051,30.77887,1217.738281,30.77887C1217.744995,30.77887,1217.788574,30.805725,1217.835327,30.838549C1217.88208,30.871372,1217.986084,30.930727,1218.066406,30.970446C1218.230957,31.0518,1218.488037,31.230236,1218.613647,31.35014C1218.659668,31.394096,1218.713867,31.438681,1218.734253,31.449213C1218.754639,31.459745,1218.774048,31.472589,1218.777588,31.477757C1218.784668,31.48815,1218.882813,31.556862,1219.037964,31.659933C1219.093872,31.697062,1219.148071,31.737852,1219.158569,31.750578C1219.169067,31.763302,1219.27478,31.846817,1219.393555,31.936167C1219.984009,32.380493,1220.324829,32.705547,1220.670288,33.154125C1220.812622,33.338905,1220.885742,33.398453,1220.885742,33.329479C1220.885742,33.313141,1220.91687,33.269619,1220.962402,33.222229C1221.051392,33.129467,1221.108032,33.019688,1221.098022,32.95892C1221.072876,32.805168,1220.670776,32.301517,1220.403198,32.088398C1220.336792,32.035561,1220.239624,31.9489,1220.187256,31.895819C1220.134888,31.842739,1220.060547,31.774473,1220.022217,31.744118C1219.983765,31.713764,1219.895142,31.633698,1219.825317,31.566195C1219.699219,31.444326,1219.543823,31.322601,1219.495117,31.307558C1219.481201,31.303242,1219.432617,31.273682,1219.387207,31.241871C1219.341797,31.210058,1219.275024,31.164387,1219.238892,31.140377C1219.202637,31.116367,1219.143311,31.06521,1219.106812,31.026695C1219.070435,30.988182,1219.033569,30.956669,1219.024902,30.956669C1219.016235,30.956669,1218.939575,30.909521,1218.854736,30.851894C1218.769775,30.794268,1218.660278,30.72621,1218.61145,30.700655C1218.562622,30.675098,1218.501465,30.63802,1218.475586,30.618254C1218.449707,30.59849,1218.379883,30.555929,1218.320435,30.523674C1218.216064,30.467001,1218.025146,30.354647,1217.847168,30.245188C1217.799805,30.216127,1217.714111,30.164942,1217.656616,30.131443C1217.599121,30.097944,1217.504272,30.041513,1217.445923,30.006042C1217.387573,29.970572,1217.279053,29.918053,1217.204712,29.889334C1216.981689,29.803232,1216.813477,29.717188,1216.61792,29.589205C1216.502808,29.513891,1216.297485,29.598528,1216.203491,29.760059C1216.17688,29.805845,1216.114624,29.886644,1216.065063,29.939611C1215.987793,30.022463,1215.863159,30.185013,1215.790894,30.29752C1215.779175,30.315672,1215.751221,30.389967,1215.728882,30.462622C1215.706421,30.535275,1215.674805,30.621193,1215.658569,30.653551C1215.640747,30.689163,1215.623535,30.756828,1215.615112,30.825001C1215.607422,30.886942,1215.590088,30.980482,1215.57666,31.032869C1215.563232,31.085257,1215.545898,31.170982,1215.53833,31.22337C1215.522217,31.333946,1215.520752,32.103012,1215.536377,32.188572C1215.542236,32.220005,1215.542603,32.265724,1215.537231,32.290173C1215.518433,32.376831,1215.522583,32.788448,1215.544434,33.007725C1215.576416,33.328037,1215.613525,33.513123,1215.646362,33.785824C1215.666748,33.955791,1215.686646,34.101334,1215.699585,34.272038C1215.705811,34.354111,1215.695679,34.459167,1215.709351,34.506989C1215.71936,34.54155,1215.731445,34.595543,1215.736328,34.626976C1215.741211,34.658409,1215.751343,34.695557,1215.758911,34.709526C1215.767334,34.725243,1215.766602,34.899483,1215.773315,35.001629C1215.780396,35.110657,1215.782715,35.204662,1215.798462,35.312778C1215.807007,35.371227,1215.82666,35.399277,1215.833496,35.477879C1215.859497,35.776115,1215.866333,35.831333,1215.885742,35.89698C1215.91394,35.992374,1215.945435,36.205212,1215.945435,36.299751C1215.945435,36.342548,1215.959717,36.461903,1215.977173,36.564983C1215.994751,36.668064,1216.009033,36.770538,1216.009033,36.792698C1216.009033,36.814857,1216.014526,36.84956,1216.02124,36.869812C1216.027954,36.890064,1216.042358,36.993889,1216.053223,37.100536C1216.064087,37.207184,1216.081177,37.330059,1216.091187,37.373589C1216.101196,37.417118,1216.114868,37.535599,1216.121704,37.636883C1216.128784,37.743595,1216.1427,37.845001,1216.154541,37.878025C1216.209839,38.031498,1216.250488,38.308987,1216.236328,38.436039C1216.219971,38.582935,1216.22644,38.572403,1216.145508,38.583172C1216.039551,38.597271,1215.82019,38.651455,1215.73645,38.684216C1215.694214,38.700737,1215.634033,38.718243,1215.602539,38.72311C1215.170288,38.790077,1215.059204,39.063347,1215.306763,39.451378C1215.35022,39.519623,1215.35022,39.519623,1215.384399,39.488083C1215.484863,39.395092,1215.697266,39.281303,1215.838745,39.244736C1215.881226,39.23373,1215.943481,39.212627,1215.976807,39.197838C1216.010254,39.183052,1216.069824,39.165668,1216.109009,39.15921C1216.374756,39.115498,1216.374756,39.11554,1216.447266,39.477722C1216.4646,39.564667,1216.496216,39.697182,1216.517456,39.772202C1216.539551,39.850002,1216.563965,39.981228,1216.574463,40.077667C1216.595093,40.267197,1216.632202,40.456234,1216.670288,40.566669C1216.684326,40.607243,1216.701538,40.700142,1216.708496,40.773117C1216.715454,40.846088,1216.735229,40.971104,1216.752563,41.050926C1216.769775,41.130749,1216.789063,41.255028,1216.795288,41.327099C1216.801514,41.39917,1216.810181,41.46389,1216.814575,41.470921C1216.81897,41.477951,1216.8302,41.539715,1216.839722,41.608173C1216.849243,41.676628,1216.87439,41.801224,1216.895752,41.88504C1216.945435,42.08078,1216.987183,42.312012,1216.987549,42.393044C1216.987793,42.455696,1216.99707,42.525948,1217.04834,42.850243C1217.073242,43.007488,1217.136475,43.275047,1217.20752,43.523346C1217.247437,43.663101,1217.264648,43.805592,1217.279419,44.120247C1217.295654,44.466141,1217.312378,44.525375,1217.427002,44.645092C1217.490723,44.711586,1217.512207,44.711483,1217.647339,44.644051z"/>
    <path transform="matrix(-1,0,0,1,0,0)" style="stroke:none;fill:#000000;fill-rule:evenodd" d="M1212.456665,42.876945C1212.432251,42.874363,1212.362915,42.860989,1212.302734,42.847229C1212.242432,42.833466,1212.161255,42.822208,1212.122192,42.822208C1212.08313,42.822208,1212.023804,42.811615,1211.990356,42.798664C1211.957031,42.785717,1211.863892,42.759327,1211.783569,42.740025C1211.677734,42.714592,1211.602539,42.686714,1211.510498,42.63876C1211.440674,42.602367,1211.35498,42.565525,1211.320068,42.556889C1211.285034,42.548256,1211.222168,42.519032,1211.180298,42.491951C1211.138428,42.46487,1211.089844,42.437271,1211.072388,42.430622C1211.054932,42.423973,1211.018433,42.400772,1210.991211,42.37907C1210.964111,42.357365,1210.934814,42.339607,1210.92627,42.339607C1210.917725,42.339607,1210.889526,42.322777,1210.863647,42.302204C1210.837769,42.281635,1210.769897,42.237839,1210.712769,42.204884C1210.630493,42.15744,1210.568481,42.10442,1210.415161,41.950188C1210.197266,41.731083,1210.19397,41.729492,1210.150879,41.822083C1210.054443,42.029282,1209.986938,42.103409,1209.901978,42.095245C1209.84314,42.089592,1209.842529,42.089939,1209.834595,42.132118C1209.812134,42.251942,1209.587646,42.208504,1209.515503,42.070362C1209.481934,42.006184,1209.490601,41.654129,1209.527588,41.58036C1209.544067,41.547413,1209.570068,41.482208,1209.585449,41.435463C1209.60083,41.388718,1209.630127,41.325851,1209.650391,41.295761C1209.670776,41.265675,1209.693237,41.212479,1209.700562,41.177555C1209.741943,40.978363,1209.790283,40.71986,1209.802612,40.631454C1209.813965,40.549416,1209.825439,40.516888,1209.862305,40.462524C1209.902588,40.403042,1209.909058,40.382317,1209.917603,40.284721C1209.922974,40.223965,1209.939209,40.140495,1209.953735,40.099239C1209.968262,40.057983,1209.980225,40.006546,1209.980469,39.98494C1209.980591,39.963333,1209.992065,39.920738,1210.005859,39.890289C1210.019653,39.85984,1210.031006,39.829128,1210.031006,39.822041C1210.031006,39.814949,1210.050415,39.765568,1210.074219,39.712299C1210.098633,39.657551,1210.131714,39.547039,1210.150146,39.458069C1210.192993,39.252281,1210.25769,39.112774,1210.342651,39.042816C1210.375854,39.015499,1210.449341,38.949593,1210.505981,38.896355C1210.58606,38.820972,1210.624268,38.794605,1210.678711,38.777161C1210.717041,38.764839,1210.765625,38.746002,1210.786621,38.735298C1210.813843,38.721386,1210.866333,38.715542,1210.970703,38.714794C1211.109741,38.713802,1211.12146,38.711613,1211.212036,38.669552C1211.449219,38.559494,1212.893799,38.60804,1213.105713,38.733192C1213.164307,38.767838,1213.286621,38.833744,1213.377441,38.87965C1213.468262,38.92556,1213.556763,38.976147,1213.574219,38.992069C1213.591675,39.007996,1213.640259,39.041527,1213.682251,39.066589C1213.759277,39.112663,1213.828735,39.178276,1213.902222,39.274361C1213.924438,39.303295,1213.975464,39.360725,1214.015625,39.401981C1214.129395,39.518841,1214.428833,40.040974,1214.55188,40.33699C1214.68103,40.647808,1214.704224,41.233757,1214.597412,41.488705C1214.581299,41.527122,1214.547485,41.620884,1214.522339,41.697067C1214.443481,41.935234,1214.400391,41.992477,1214.134033,42.212608C1213.865723,42.434376,1213.807495,42.478523,1213.73938,42.512096C1213.700928,42.531033,1213.629517,42.573387,1213.580566,42.60622C1213.531738,42.639053,1213.45166,42.686153,1213.402832,42.710892C1213.353882,42.735626,1213.296753,42.765041,1213.275757,42.776257C1213.254883,42.787476,1213.226196,42.796688,1213.212036,42.79673C1213.197998,42.796772,1213.146484,42.807774,1213.097778,42.821175C1212.895996,42.876633,1212.653442,42.897739,1212.456665,42.876945zM1212.46936,42.394623C1212.444946,42.391685,1212.39917,42.381287,1212.367798,42.371513C1212.336304,42.36174,1212.264893,42.347393,1212.208984,42.339626C1212.153076,42.331863,1212.053101,42.309071,1211.986816,42.288975C1211.92041,42.268883,1211.82605,42.246986,1211.777222,42.240314C1211.656006,42.223778,1211.544434,42.175777,1211.436279,42.093597C1211.38623,42.055672,1211.299072,42.001534,1211.24231,41.973293C1211.170776,41.937645,1211.123047,41.903278,1211.08606,41.860901C1211.056763,41.827328,1211.011719,41.783939,1210.985962,41.764481C1210.848022,41.660538,1210.719116,41.514126,1210.678223,41.415001C1210.656006,41.36124,1210.62207,41.285824,1210.602661,41.247406C1210.522705,41.08926,1210.512329,41.049648,1210.497803,40.848625C1210.484619,40.667797,1210.485474,40.648872,1210.51062,40.548294C1210.525391,40.489258,1210.546509,40.380947,1210.557373,40.307602C1210.572021,40.209324,1210.589233,40.1492,1210.622803,40.079002C1210.647827,40.026615,1210.684326,39.923744,1210.703857,39.850403C1210.723389,39.777061,1210.74585,39.699905,1210.75354,39.678951C1210.761353,39.657997,1210.77356,39.616909,1210.78064,39.587643C1210.797852,39.516613,1210.825562,39.509407,1210.914307,39.552837C1211.028809,39.608891,1211.089111,39.563351,1211.033936,39.462368C1210.99939,39.399139,1211.003296,39.390308,1211.094604,39.327534C1211.141724,39.295055,1211.174438,39.285877,1211.314819,39.26556C1211.405518,39.252441,1211.518066,39.229954,1211.564941,39.215588C1211.816284,39.138557,1212.462158,39.160416,1212.761353,39.256073C1212.94751,39.315594,1213.351807,39.53043,1213.440918,39.617188C1213.552002,39.725227,1213.66626,39.856209,1213.723145,39.940464C1213.758301,39.992619,1213.797119,40.043564,1213.809326,40.053677C1213.829712,40.070595,1213.968018,40.344982,1213.968018,40.368515C1213.968018,40.374191,1213.985107,40.405865,1214.006104,40.438908C1214.026978,40.471951,1214.044189,40.506481,1214.044189,40.515644C1214.044189,40.524807,1214.052246,40.548897,1214.062256,40.569176C1214.121094,40.689659,1214.123779,41.219975,1214.065918,41.332005C1214.03125,41.399437,1213.980713,41.563568,1213.980713,41.6091C1213.980591,41.706535,1213.783081,41.998764,1213.682251,42.050503C1213.654297,42.064842,1213.613525,42.090179,1213.591675,42.106808C1213.569824,42.123436,1213.506958,42.153492,1213.452026,42.173592C1213.396973,42.193695,1213.274902,42.24612,1213.180542,42.290092C1213.009155,42.370045,1213.009155,42.370045,1212.799561,42.379425C1212.684326,42.384586,1212.572876,42.391319,1212.55188,42.394386C1212.531006,42.397457,1212.493774,42.397564,1212.46936,42.394623z"/>
    <path transform="matrix(-1,0,0,1,0,0)" style="stroke:none;fill:#000000;fill-rule:evenodd" d="M1203.272949,41.732407C1203.268066,41.727497,1203.11377,41.593262,1203.09729,41.606926C1203.052734,41.643913,1203.060425,41.582733,1203.108154,41.520164C1203.15686,41.456448,1203.165771,41.352417,1203.126831,41.302971C1203.111572,41.28371,1203.121338,41.220421,1203.157837,41.100571C1203.200562,40.960224,1203.180908,40.950428,1203.112427,41.077866C1203.088989,41.121296,1203.057861,41.163315,1203.043091,41.171246C1203.028442,41.179176,1202.986206,41.213108,1202.949341,41.246651C1202.807129,41.376263,1202.39502,41.556416,1202.079102,41.627068C1200.80481,41.912079,1199.931885,41.476814,1199.663208,40.422459C1199.582031,40.10376,1199.559326,39.633987,1199.612915,39.378071C1199.63147,39.2897,1199.656738,39.157726,1199.669189,39.084797C1199.714844,38.815979,1199.845093,38.555779,1200.132324,38.160168C1200.303711,37.924095,1200.349609,37.878304,1200.550659,37.742947C1200.654907,37.672806,1200.779297,37.58812,1200.827148,37.554749C1200.875,37.521381,1200.970093,37.455139,1201.03833,37.407547C1201.441895,37.126312,1202.271484,37.109234,1202.600952,37.375374C1202.630249,37.399025,1202.671631,37.421883,1202.693115,37.426167C1202.71582,37.43071,1202.734741,37.444538,1202.738647,37.459396C1202.757568,37.531513,1202.82251,37.411915,1202.849121,37.255825C1202.857422,37.207958,1202.881348,37.090466,1202.902588,36.994728C1202.956665,36.74979,1203.033447,36.34029,1203.043213,36.244911C1203.069458,35.987144,1203.144043,35.673599,1203.210327,35.54221C1203.233276,35.496895,1203.266479,35.393913,1203.284302,35.313362C1203.302124,35.232815,1203.32251,35.156399,1203.329468,35.143551C1203.351196,35.10368,1203.491211,34.896633,1203.553589,34.812229C1203.586182,34.768044,1203.626465,34.710804,1203.643066,34.685028C1203.71521,34.573185,1203.881714,34.634441,1203.940063,34.794262C1203.990601,34.932766,1203.944702,35.235668,1203.838135,35.468319C1203.728638,35.707092,1203.639893,35.991009,1203.599487,36.231522C1203.546997,36.543892,1203.50769,36.715977,1203.473267,36.783764C1203.43689,36.855591,1203.394287,37.03252,1203.372437,37.202267C1203.365356,37.2575,1203.35022,37.344868,1203.338745,37.396416C1203.327393,37.447968,1203.317749,37.544373,1203.317383,37.610649C1203.317017,37.676926,1203.304199,37.794422,1203.28894,37.871746C1203.269287,37.971882,1203.262695,38.048939,1203.265991,38.139538C1203.278442,38.475513,1203.269653,38.764553,1203.240723,38.969688C1203.224731,39.083836,1203.201782,39.249531,1203.189819,39.337902C1203.149292,39.637787,1203.108643,39.802521,1203.042603,39.934315C1203.018433,39.982502,1202.985229,40.066856,1202.96875,40.121769C1202.831909,40.578712,1202.636475,40.785423,1202.437012,40.684086C1202.392944,40.661701,1202.350464,40.643387,1202.342407,40.643387C1202.227295,40.643387,1202.218628,40.392078,1202.318604,39.95639C1202.351074,39.815056,1202.381958,39.660255,1202.387329,39.612389C1202.3927,39.564522,1202.402588,39.510792,1202.409302,39.492989C1202.481567,39.301975,1202.548706,39.005714,1202.573853,38.76656C1202.585083,38.658516,1202.600464,38.554188,1202.60791,38.534718C1202.628418,38.480762,1202.623901,38.185719,1202.601196,38.089069C1202.556152,37.898205,1202.489502,37.830399,1202.314697,37.797657C1202.266113,37.788551,1202.184204,37.771645,1202.132568,37.760078C1201.91333,37.710899,1201.756958,37.70903,1201.630493,37.754078C1201.567871,37.776386,1201.468506,37.808445,1201.409546,37.825325C1201.070068,37.922592,1200.975098,37.984081,1200.662964,38.308849C1200.437378,38.543526,1200.419067,38.57473,1200.300781,38.92952C1200.129272,39.443684,1200.115112,39.799286,1200.245361,40.326889C1200.324341,40.646923,1200.606567,40.918812,1201.009277,41.062668C1201.309814,41.170025,1202.036499,41.150948,1202.264404,41.029716C1202.369507,40.973797,1202.447266,40.922459,1202.447266,40.908981C1202.447266,40.857899,1202.515869,40.804062,1202.581055,40.804062C1202.617065,40.804062,1202.650024,40.7985,1202.654175,40.791702C1202.658325,40.784904,1202.679077,40.775555,1202.700195,40.770924C1202.721191,40.766293,1202.752319,40.747753,1202.769287,40.729725C1202.835083,40.659649,1203.046631,40.695896,1203.204102,40.804249C1203.281494,40.857563,1203.303345,40.843727,1203.318604,40.731464C1203.33252,40.628838,1203.404907,40.478088,1203.486938,40.380974C1203.52478,40.336063,1203.580078,40.259377,1203.609741,40.210556C1203.639404,40.161739,1203.690186,40.087013,1203.722656,40.044506C1203.755005,40.001995,1203.837036,39.884827,1203.904785,39.784134C1204.039063,39.58456,1204.238525,39.381718,1204.415527,39.264675C1204.463379,39.233025,1204.602051,39.10701,1204.723633,38.984642C1205.029175,38.677086,1204.996582,38.691303,1205.249878,38.754841C1205.488403,38.814648,1205.562622,38.86504,1205.856445,39.166786C1205.991943,39.305866,1205.991943,39.305866,1206.159668,39.12104C1206.533447,38.709347,1206.648438,38.612106,1206.835938,38.548954C1206.907959,38.524696,1206.987549,38.494213,1207.012695,38.481205C1207.734253,38.108051,1208.131592,38.248791,1208.542969,39.023247C1208.585938,39.104172,1208.605469,39.15834,1208.610474,39.210701C1208.619995,39.311489,1208.671631,39.442532,1208.672729,39.36882C1208.673096,39.341637,1208.679565,39.315643,1208.68689,39.31105C1208.694336,39.306458,1208.733765,39.260914,1208.774536,39.209839C1208.875122,39.083797,1208.943237,39.0914,1208.973633,39.232067C1208.978638,39.25531,1209,39.286366,1209.022217,39.302773C1209.141846,39.391254,1209.231567,39.771088,1209.154297,39.862259C1209.142822,39.875797,1209.125854,39.93396,1209.116577,39.991508C1209.094727,40.127975,1209.068115,40.202972,1208.976563,40.385361C1208.902222,40.533424,1208.796143,40.835503,1208.73999,41.058464C1208.724243,41.121059,1208.692993,41.214451,1208.670654,41.266003C1208.648193,41.317551,1208.619385,41.409298,1208.606567,41.469883C1208.555908,41.709827,1208.344971,41.809429,1208.115112,41.701881C1207.956055,41.627457,1207.915771,41.536793,1207.955078,41.341793C1207.966919,41.283054,1207.983154,41.163639,1207.991211,41.076431C1208.009888,40.873802,1208.050537,40.615261,1208.077026,40.530796C1208.088745,40.493721,1208.0979,40.414917,1208.098145,40.350037C1208.098389,40.28677,1208.104248,40.17181,1208.111206,40.094574C1208.133911,39.842346,1207.964966,39.180641,1207.858398,39.104874C1207.741211,39.021496,1207.512573,38.92952,1207.422485,38.92952C1207.190796,38.92952,1206.77417,39.150337,1206.67041,39.328064C1206.650146,39.362934,1206.604736,39.42905,1206.56958,39.474991C1206.493164,39.575039,1206.410645,39.713154,1206.410645,39.741013C1206.410645,39.752056,1206.374146,39.794807,1206.329712,39.836018C1206.230103,39.928185,1206.128418,40.221046,1206.142212,40.375595C1206.150757,40.470078,1206.143677,40.603397,1206.128662,40.631409C1206.119385,40.648842,1206.112915,40.694782,1206.114502,40.733505C1206.117676,40.812202,1206.111816,40.820438,1205.983032,40.917873C1205.897095,40.982838,1205.879272,40.999393,1205.871216,41.021404C1205.866211,41.035049,1205.860107,41.03508,1205.839966,41.021557C1205.805542,40.998596,1205.796631,40.99506,1205.729614,40.977867C1205.691406,40.96809,1205.668823,40.954094,1205.664551,40.937515C1205.660889,40.92355,1205.638306,40.900562,1205.61438,40.886425C1205.51416,40.82729,1205.464722,40.711304,1205.505981,40.631676C1205.518066,40.608227,1205.516357,40.596607,1205.520752,40.577431C1205.525024,40.559181,1205.521362,40.547382,1205.530884,40.524857C1205.542236,40.497776,1205.545288,40.455338,1205.539917,40.39962C1205.535522,40.353268,1205.536499,40.291241,1205.542114,40.261784C1205.561646,40.160969,1205.555664,40.073818,1205.526855,40.037201C1205.510376,40.016232,1205.500122,39.982883,1205.500122,39.950363C1205.500122,39.88797,1205.474609,39.800922,1205.431641,39.716339C1205.425049,39.703552,1205.4198,39.685478,1205.4198,39.67617C1205.4198,39.534428,1205.105957,39.376247,1205.007446,39.468353C1204.987549,39.486977,1204.951172,39.512341,1204.926636,39.524719C1204.89978,39.538292,1204.725464,39.649055,1204.701538,39.669296C1204.622192,39.73661,1204.455688,39.904934,1204.455688,39.917908C1204.455688,39.925545,1204.442139,39.942776,1204.425537,39.9562C1204.393555,39.982155,1204.372559,40.009624,1204.307129,40.110985C1204.284546,40.145874,1204.248901,40.186699,1204.227783,40.20171C1204.206787,40.216724,1204.185303,40.242405,1204.180176,40.258785C1204.175171,40.275162,1204.147705,40.31797,1204.119141,40.353912C1204.090698,40.389854,1204.067383,40.43412,1204.067383,40.452278C1204.067383,40.471733,1204.04541,40.510292,1204.013916,40.546143C1203.984375,40.579609,1203.960327,40.614296,1203.960327,40.62323C1203.960327,40.632164,1203.93103,40.6991,1203.895142,40.771976C1203.816772,40.93132,1203.761108,41.119976,1203.75,41.263168C1203.743042,41.354778,1203.737793,41.37125,1203.709839,41.389511C1203.692261,41.401058,1203.669312,41.431057,1203.658813,41.456173C1203.648315,41.481285,1203.593994,41.544601,1203.53833,41.59687C1203.467773,41.662994,1203.441162,41.696163,1203.450928,41.705906C1203.458618,41.713608,1203.464844,41.724728,1203.464844,41.730621C1203.464844,41.746975,1203.418701,41.74337,1203.401001,41.725628C1203.388916,41.713615,1203.377197,41.713615,1203.35083,41.725628C1203.312012,41.74332,1203.286133,41.745571,1203.272949,41.732407z"/>
    <path transform="matrix(-1,0,0,1,0,0)" style="stroke:none;fill:#000000;fill-rule:evenodd" d="M1198.325317,41.277645C1198.307861,41.267956,1198.268921,41.259941,1198.238892,41.259842C1198.150391,41.259537,1198.09668,41.221771,1198.09668,41.159962C1198.09668,41.148186,1198.082031,41.116924,1198.063965,41.090492C1198.017944,41.022709,1198.011353,40.966393,1198.043213,40.914379C1198.07312,40.865646,1198.085449,40.625347,1198.066162,40.465179C1198.057251,40.390678,1198.059082,40.368446,1198.077148,40.333385C1198.114502,40.261116,1198.092773,39.582226,1198.045532,39.350849C1198.038696,39.317326,1198.033203,39.275421,1198.033203,39.257729C1198.033203,39.240032,1198.016724,39.18745,1197.996704,39.140877C1197.971802,39.083317,1197.957642,39.024475,1197.952271,38.957142C1197.947998,38.90266,1197.937622,38.845509,1197.929199,38.830139C1197.920654,38.814774,1197.901611,38.765049,1197.886719,38.719646C1197.856567,38.627441,1197.813477,38.58778,1197.697754,38.545551C1197.663452,38.533035,1197.620605,38.5075,1197.602539,38.488804C1197.466675,38.348438,1197.474365,38.360428,1197.474365,38.29007C1197.474365,38.184376,1197.55249,38.084869,1197.600952,38.128777C1197.621216,38.147068,1197.62439,38.14716,1197.631104,38.129646C1197.657227,38.061653,1198.096924,38.090149,1198.168335,38.122448C1198.238647,38.154297,1198.245728,38.194038,1198.24939,38.225109C1198.25293,38.256454,1198.268188,38.29937,1198.283325,38.320473C1198.29834,38.341576,1198.326172,38.397701,1198.345215,38.445198C1198.364136,38.492695,1198.392212,38.546726,1198.407471,38.565277C1198.422729,38.583824,1198.44519,38.624714,1198.457397,38.656147C1198.469604,38.68758,1198.499756,38.749577,1198.524414,38.793915C1198.557495,38.853561,1198.570801,38.894863,1198.575562,38.952667C1198.578979,38.99564,1198.599243,39.085091,1198.620605,39.151447C1198.652832,39.251923,1198.658936,39.290154,1198.65686,39.380051C1198.655029,39.461643,1198.660889,39.506603,1198.68103,39.564198C1198.695557,39.60611,1198.710938,39.688976,1198.715088,39.748348C1198.719971,39.817783,1198.734863,39.890285,1198.75708,39.95155C1198.835449,40.167744,1198.813965,40.740314,1198.721069,40.911816C1198.713989,40.925007,1198.701294,40.971172,1198.692871,41.0144C1198.67395,41.112648,1198.647095,41.157295,1198.574707,41.211025C1198.543335,41.234276,1198.515015,41.263306,1198.511597,41.275528C1198.503906,41.303467,1198.374512,41.304939,1198.325317,41.277645z"/>
    <path transform="matrix(-1,0,0,1,0,0)" style="stroke:none;fill:#000000;fill-rule:evenodd" d="M1195.14978,41.807659C1194.978149,41.77668,1194.849731,41.713188,1194.684326,41.577496C1194.562012,41.477119,1194.510376,41.452141,1194.473511,41.475311C1194.457764,41.485153,1194.413452,41.500378,1194.375,41.50914C1194.33667,41.517906,1194.279541,41.538349,1194.248047,41.554573C1193.937988,41.71463,1193.766602,41.456566,1193.982056,41.153786C1193.996704,41.133118,1194.012451,41.068607,1194.025391,40.975365C1194.049072,40.806084,1194.068848,40.730801,1194.128906,40.581661C1194.152832,40.522289,1194.203735,40.350842,1194.241943,40.200661C1194.334106,39.838184,1194.375244,39.705311,1194.430542,39.591419C1194.455933,39.53923,1194.476685,39.487366,1194.476685,39.47617C1194.476685,39.42561,1194.577026,39.173351,1194.682617,38.958527C1194.754883,38.811573,1195.200562,38.765507,1195.200562,38.904991C1195.200562,38.916653,1195.223389,38.970364,1195.251343,39.024357C1195.332275,39.180729,1195.299683,39.352673,1195.1427,39.597412C1194.924194,39.937977,1194.837158,40.237358,1194.848145,40.610901C1194.860352,41.022472,1194.93811,41.192913,1195.164551,41.304428C1195.438843,41.439438,1195.961182,41.272236,1196.213867,40.968555C1196.271851,40.898956,1196.344727,40.816082,1196.375854,40.784389C1196.698486,40.456272,1196.67041,39.663094,1196.326538,39.389473C1196.280029,39.352459,1196.241943,39.31657,1196.241943,39.309723C1196.241943,39.217052,1196.14917,39.337753,1196.018555,39.60033C1196.000244,39.637367,1195.927368,39.667263,1195.855469,39.667263C1195.815674,39.667263,1195.772461,39.672977,1195.759399,39.679962C1195.74353,39.688408,1195.724487,39.688427,1195.702393,39.680023C1195.37207,39.554428,1195.449707,38.947948,1195.829224,38.688862C1196.020142,38.558563,1196.47583,38.592041,1196.642212,38.748585C1196.830688,38.925972,1197.040161,39.269691,1197.085815,39.476761C1197.097412,39.529148,1197.123779,39.624943,1197.144287,39.689636C1197.248779,40.017941,1197.142212,40.560658,1196.898804,40.938774C1196.830444,41.044998,1196.380249,41.465607,1196.239868,41.554474C1196.214233,41.570679,1196.189575,41.589993,1196.184937,41.597393C1196.17395,41.615303,1196.067505,41.667946,1196.019653,41.67918C1195.998779,41.684105,1195.915894,41.717598,1195.835571,41.753613C1195.672852,41.826561,1195.381592,41.84951,1195.14978,41.807659z"/>
    <path transform="matrix(-1,0,0,1,0,0)" style="stroke:none;fill:#000000;fill-rule:evenodd" d="M1191.297974,41.49102C1191.315918,41.467594,1191.366577,41.410824,1191.4104,41.364861C1191.454346,41.318901,1191.490356,41.273979,1191.490356,41.265038C1191.490356,41.228264,1191.403198,41.089249,1191.330444,41.009972C1191.238892,40.910194,1191.213989,40.825729,1191.228271,40.663078C1191.232666,40.613056,1191.24231,40.486401,1191.249512,40.381626C1191.275024,40.015495,1191.406982,39.718697,1191.639648,39.504471C1192.005615,39.167633,1192.851318,39.251705,1192.912964,39.631039C1192.921021,39.680641,1192.941406,39.783428,1192.958252,39.859459C1193,40.047977,1193.003906,40.583988,1192.964722,40.749928C1192.925537,40.915562,1192.923584,40.947285,1192.944336,41.065395C1192.968384,41.202156,1192.990845,41.24836,1193.044067,41.270615C1193.069336,41.281178,1193.093018,41.304897,1193.106445,41.33305C1193.128174,41.378448,1193.128174,41.378448,1193.258545,41.373432C1193.430542,41.366814,1193.436646,41.364056,1193.426392,41.296028C1193.4198,41.251942,1193.422607,41.238804,1193.442139,41.224567C1193.456787,41.213821,1193.479492,41.158394,1193.501343,41.080128C1193.520752,41.010277,1193.5625,40.893848,1193.593994,40.8214C1193.633057,40.731609,1193.648804,40.67997,1193.643677,40.65921C1193.638184,40.637741,1193.654419,40.590397,1193.698608,40.498837C1193.822388,40.242126,1193.838989,39.898148,1193.728394,39.882267C1193.694702,39.877438,1193.695557,39.883419,1193.719849,39.814896C1193.790161,39.617081,1193.797852,39.443096,1193.736572,39.437977C1193.690552,39.434124,1193.690552,39.434124,1193.681396,39.507038C1193.674316,39.56374,1193.664307,39.587379,1193.636475,39.613373C1193.616821,39.63176,1193.59436,39.670345,1193.58667,39.699123C1193.558228,39.804688,1193.506226,39.785225,1193.459106,39.651375C1193.443115,39.605972,1193.407471,39.523544,1193.379639,39.468201C1193.351929,39.412861,1193.315186,39.324501,1193.298096,39.271843C1193.121826,38.732132,1192.602173,38.558712,1191.894287,38.803436C1191.459351,38.9538,1191.124146,39.259014,1190.886475,39.721226C1190.825439,39.83997,1190.773438,39.939507,1190.770874,39.942417C1190.755005,39.961033,1190.746216,39.924389,1190.710938,39.689476C1190.681396,39.493309,1190.638306,39.351418,1190.552124,39.166901C1190.531494,39.122528,1190.505981,39.065502,1190.495728,39.040176C1190.485352,39.014851,1190.448242,38.962444,1190.413208,38.923721C1190.378052,38.884998,1190.33728,38.828564,1190.32251,38.798317C1190.274902,38.700726,1190.260864,38.680958,1190.190918,38.612045C1189.953491,38.378368,1189.772339,38.316505,1189.661377,38.431114C1189.549316,38.546726,1189.24292,38.600567,1189.147583,38.5214C1189.116211,38.495369,1188.692261,38.509693,1188.626465,38.539009C1188.531128,38.58152,1188.436035,38.610878,1188.357666,38.622025C1188.221802,38.641335,1188.06958,38.696934,1188.003906,38.751183C1187.953003,38.79319,1187.935303,38.800472,1187.883667,38.800472C1187.829834,38.800472,1187.814331,38.807648,1187.742188,38.865772C1187.697632,38.901688,1187.609863,38.956223,1187.546997,38.986965C1187.402588,39.057537,1187.327026,39.101627,1187.265259,39.151321C1187.238403,39.172905,1187.204102,39.19445,1187.189209,39.199196C1187.052124,39.242683,1186.764282,39.625702,1186.741333,39.79517C1186.711182,40.016613,1186.725952,40.068733,1186.892578,40.330826C1186.932495,40.393692,1186.979858,40.470844,1186.997681,40.502277C1187.04248,40.581303,1187.226563,40.752712,1187.406616,40.883278C1187.496094,40.948074,1187.582153,41.017925,1187.666748,41.094383C1187.758423,41.177158,1187.833984,41.207848,1188.054932,41.25209C1188.096802,41.260483,1188.199341,41.284092,1188.282837,41.304554C1188.522949,41.363476,1188.630981,41.369247,1188.842285,41.334469C1188.940186,41.318382,1189.048706,41.301315,1189.083618,41.296543C1189.199463,41.280716,1189.551758,41.200069,1189.671143,41.162037C1189.73584,41.141434,1189.799683,41.124577,1189.81311,41.124577C1190.064331,41.124577,1190.480713,40.644173,1190.707397,40.092701C1190.756836,39.972557,1190.765381,40.097553,1190.722534,40.311775C1190.677368,40.537571,1190.714478,41.086975,1190.784058,41.222809C1190.814697,41.282494,1191.035767,41.514648,1191.080078,41.533669C1191.140625,41.559635,1191.263916,41.535515,1191.297974,41.49102zM1188.524902,40.858562C1188.148071,40.776825,1187.763428,40.57196,1187.491333,40.308132C1187.318848,40.140839,1187.25293,39.904526,1187.334595,39.74625C1187.388672,39.641689,1187.682129,39.391853,1187.851685,39.306053C1187.921631,39.270718,1188.01709,39.217075,1188.063965,39.186848C1188.228882,39.080399,1188.375366,39.027016,1188.65625,38.970959C1188.835815,38.935139,1188.837524,38.934467,1188.857422,38.892612C1188.903687,38.794971,1189.197266,38.806221,1189.198975,38.905704C1189.200928,39.007744,1189.262329,39.011261,1189.31665,38.912434C1189.369019,38.816948,1189.380127,38.809448,1189.455566,38.818317C1189.511719,38.824917,1189.527832,38.822487,1189.540283,38.805508C1189.559326,38.779388,1189.572021,38.785641,1189.714844,38.891579C1189.85376,38.994614,1189.896118,39.035324,1189.944214,39.111626C1189.966187,39.146549,1190.002319,39.197983,1190.024536,39.225925C1190.095337,39.315132,1190.194946,39.552307,1190.194946,39.63158C1190.194824,39.997971,1189.895996,40.54171,1189.617065,40.682823C1189.391602,40.796875,1188.730713,40.903221,1188.524902,40.858562z"/>
</svg>
